<svg width="25" height="25" viewBox="0 0 25 25" fill="none" xmlns="http://www.w3.org/2000/svg">
<path d="M20.6188 5.97012H11.8766L19.7609 1.28262C19.8406 1.23574 19.9484 1.25918 19.9953 1.33887L21.5609 3.97793C20.9422 4.45137 20.5906 5.20137 20.6188 5.97012ZM24.4531 14.5061V17.5764C24.4578 17.6654 24.3781 17.7451 24.2844 17.7451H0.715625C0.621875 17.7451 0.546875 17.6701 0.546875 17.5764V14.5061C3.34531 14.1264 3.35 10.1467 0.546875 9.75762V6.6873C0.546875 6.60293 0.626563 6.51855 0.715625 6.51855H24.2844C24.3734 6.51855 24.4531 6.59355 24.4531 6.6873V9.75762C21.6547 10.1373 21.65 14.117 24.4531 14.5061ZM6.18125 16.4186C6.18125 16.0623 5.63281 16.0623 5.63281 16.4186V16.9014C5.63281 17.2576 6.17656 17.2576 6.18125 16.9014V16.4186ZM6.18125 14.9092C6.17656 14.5482 5.6375 14.5482 5.63281 14.9092V15.3967C5.6375 15.7576 6.17188 15.7576 6.18125 15.3967V14.9092ZM6.18125 13.3998C6.18125 13.0436 5.63281 13.0436 5.63281 13.3998V13.8826C5.63281 14.2389 6.17656 14.2389 6.18125 13.8826V13.3998ZM6.18125 11.8857C6.17656 11.5248 5.6375 11.5248 5.63281 11.8857V12.3732C5.6375 12.7342 6.17188 12.7342 6.18125 12.3732V11.8857ZM6.18125 10.3764C6.18125 10.0201 5.63281 10.0201 5.63281 10.3764V10.8592C5.63281 11.2154 6.17656 11.2154 6.18125 10.8592V10.3764ZM6.18125 8.86699C6.17656 8.50605 5.6375 8.50605 5.63281 8.86699V9.35449C5.6375 9.71543 6.17188 9.71543 6.18125 9.35449V8.86699ZM6.18125 7.35762C6.17656 6.99668 5.6375 6.99668 5.63281 7.35762V7.84043C5.63281 8.19668 6.17656 8.19668 6.18125 7.84043V7.35762ZM20.4688 8.44043C20.4688 8.04668 20.15 7.72793 19.7563 7.72793H8.98438C8.59063 7.72793 8.27188 8.04668 8.27188 8.44043V15.8186C8.27188 16.2123 8.59063 16.5311 8.98438 16.5311H19.7563C20.15 16.5311 20.4688 16.2123 20.4688 15.8186V8.44043ZM3.44375 20.2857L5.00938 22.9201C5.05625 22.9998 5.15938 23.0279 5.24375 22.9764L13.1234 18.2889H4.38125C4.41406 19.0623 4.05781 19.8123 3.44375 20.2857ZM19.925 8.44043V15.8186C19.925 15.9123 19.85 15.9873 19.7563 15.9873H8.98438C8.89531 15.9873 8.81563 15.9123 8.81563 15.8186V8.44043C8.81563 8.34668 8.89063 8.27168 8.98438 8.27168H19.7563C19.85 8.27637 19.925 8.35137 19.925 8.44043ZM13.2734 11.5295C14.7547 11.4826 14.7594 9.33105 13.2734 9.28418C11.7922 9.33105 11.7922 11.4826 13.2734 11.5295ZM15.2047 13.217C13.7234 13.2639 13.7234 15.4154 15.2047 15.4623C16.6906 15.4154 16.6953 13.2639 15.2047 13.217ZM16.1891 9.38731L11.7734 15.0217C11.5531 15.3029 11.9844 15.6451 12.2047 15.3592L16.6156 9.72949C16.8359 9.44355 16.4094 9.11074 16.1891 9.38731ZM13.85 10.4045C13.8359 9.64981 12.7109 9.64981 12.6969 10.4045C12.7109 11.1639 13.8359 11.1639 13.85 10.4045ZM14.6328 14.3373C14.6516 15.1014 15.7625 15.0967 15.7859 14.3373C15.7719 13.5873 14.6469 13.5826 14.6328 14.3373ZM2.17813 1.84043C2.52031 1.84043 2.80625 1.55918 2.80625 1.2123C2.80625 1.0623 2.92813 0.94043 3.07813 0.94043C3.22813 0.94043 3.35 1.0623 3.35 1.2123C3.35 1.55449 3.62656 1.84043 3.97344 1.84043C4.32969 1.84043 4.32969 2.38418 3.97344 2.38887C3.63125 2.38887 3.35 2.66543 3.35 3.0123C3.35 3.37324 2.80156 3.36855 2.80156 3.0123C2.80156 2.67012 2.52031 2.38887 2.17344 2.38887C1.81719 2.37949 1.82188 1.84512 2.17813 1.84043ZM2.93281 2.1123C2.98438 2.15449 3.03594 2.20605 3.07813 2.25762C3.12031 2.20137 3.17188 2.15449 3.22344 2.1123C3.17188 2.06543 3.12031 2.01855 3.07813 1.96699C3.03125 2.01855 2.98438 2.06543 2.93281 2.1123ZM12.4719 23.1686C12.125 23.1686 11.8484 23.4498 11.8484 23.792C11.8484 24.1482 11.3047 24.1482 11.3 23.792C11.3 23.4451 11.0188 23.1686 10.6766 23.1686C10.3203 23.1686 10.3203 22.6248 10.6766 22.6201C11.0234 22.6201 11.3 22.3389 11.3 21.9967C11.3 21.8467 11.4219 21.7248 11.5719 21.7248C11.7219 21.7248 11.8438 21.8467 11.8438 21.9967C11.8438 22.3436 12.125 22.6201 12.4672 22.6201C12.8281 22.6201 12.8281 23.1639 12.4719 23.1686ZM11.7172 22.892C11.6656 22.8451 11.6141 22.7982 11.5719 22.7467C11.525 22.7982 11.4781 22.8498 11.4266 22.892C11.4781 22.9389 11.5297 22.9857 11.5719 23.0373C11.6188 22.9857 11.6656 22.9389 11.7172 22.892ZM16.4422 20.2717C16.1 20.2717 15.8188 20.5529 15.8188 20.8998C15.8141 21.2607 15.275 21.2561 15.2703 20.8998C15.2703 20.5576 14.9891 20.2717 14.6422 20.2717C14.2813 20.267 14.2813 19.7326 14.6422 19.7232C14.9844 19.7232 15.2703 19.442 15.2703 19.0951C15.2703 18.9451 15.3922 18.8232 15.5422 18.8232C15.6922 18.8232 15.8141 18.9451 15.8141 19.0951C15.8141 19.4373 16.0906 19.7232 16.4375 19.7232C16.8031 19.7279 16.8031 20.2623 16.4422 20.2717ZM15.6922 19.9951C15.6406 19.9529 15.5891 19.9014 15.5469 19.8498C15.5 19.9061 15.4531 19.9529 15.4016 19.9951C15.4531 20.0373 15.5047 20.0889 15.5469 20.1404C15.5891 20.0889 15.6406 20.042 15.6922 19.9951ZM8.09375 2.42637C8.58125 2.42637 8.975 2.02793 8.975 1.54512C8.97969 1.18418 9.51406 1.18887 9.52344 1.54512C9.52344 2.03262 9.92188 2.42637 10.4047 2.42637C10.7656 2.43105 10.7609 2.96543 10.4047 2.9748C9.91719 2.9748 9.52344 3.37324 9.52344 3.85605C9.51875 4.21699 8.98438 4.2123 8.975 3.85605C8.975 3.36855 8.57656 2.9748 8.09375 2.9748C7.73281 2.96543 7.73281 2.43105 8.09375 2.42637ZM8.93281 2.69824C9.05469 2.7873 9.1625 2.89043 9.25156 3.01699C9.34063 2.89512 9.44844 2.7873 9.57031 2.69824C9.44844 2.60918 9.34531 2.50605 9.25156 2.37949C9.1625 2.50605 9.05469 2.60918 8.93281 2.69824ZM22.1563 22.6811C21.6688 22.6811 21.275 23.0795 21.275 23.5623C21.275 23.9186 20.7313 23.9186 20.7266 23.5623C20.7266 23.0748 20.3281 22.6811 19.8453 22.6811C19.4891 22.6811 19.4891 22.1373 19.8453 22.1326C20.3328 22.1326 20.7266 21.7342 20.7266 21.2514C20.7266 20.8951 21.2703 20.8951 21.275 21.2514C21.275 21.7389 21.6734 22.1326 22.1563 22.1326C22.5172 22.1373 22.5125 22.6811 22.1563 22.6811ZM21.3172 22.4092C21.1953 22.3201 21.0875 22.2123 21.0031 22.0951C20.9141 22.217 20.8063 22.3248 20.6891 22.4092C20.8109 22.4982 20.9188 22.6061 21.0031 22.7232C21.0875 22.6061 21.1953 22.4982 21.3172 22.4092Z" fill="#001495"/>
</svg>
