<svg width="24" height="25" viewBox="0 0 24 25" fill="none" xmlns="http://www.w3.org/2000/svg">
<g clip-path="url(#clip0_91_4127)">
<path d="M20.1188 5.97012H11.3766L19.2609 1.28262C19.3406 1.23574 19.4484 1.25918 19.4953 1.33887L21.0609 3.97793C20.4422 4.45137 20.0906 5.20137 20.1188 5.97012ZM23.9531 14.5061V17.5764C23.9578 17.6654 23.8781 17.7451 23.7844 17.7451H0.215625C0.121875 17.7451 0.046875 17.6701 0.046875 17.5764V14.5061C2.84531 14.1264 2.85 10.1467 0.046875 9.75762V6.6873C0.046875 6.60293 0.126563 6.51855 0.215625 6.51855H23.7844C23.8734 6.51855 23.9531 6.59355 23.9531 6.6873V9.75762C21.1547 10.1373 21.15 14.117 23.9531 14.5061ZM5.68125 16.4186C5.68125 16.0623 5.13281 16.0623 5.13281 16.4186V16.9014C5.13281 17.2576 5.67656 17.2576 5.68125 16.9014V16.4186ZM5.68125 14.9092C5.67656 14.5482 5.1375 14.5482 5.13281 14.9092V15.3967C5.1375 15.7576 5.67188 15.7576 5.68125 15.3967V14.9092ZM5.68125 13.3998C5.68125 13.0436 5.13281 13.0436 5.13281 13.3998V13.8826C5.13281 14.2389 5.67656 14.2389 5.68125 13.8826V13.3998ZM5.68125 11.8857C5.67656 11.5248 5.1375 11.5248 5.13281 11.8857V12.3732C5.1375 12.7342 5.67188 12.7342 5.68125 12.3732V11.8857ZM5.68125 10.3764C5.68125 10.0201 5.13281 10.0201 5.13281 10.3764V10.8592C5.13281 11.2154 5.67656 11.2154 5.68125 10.8592V10.3764ZM5.68125 8.86699C5.67656 8.50605 5.1375 8.50605 5.13281 8.86699V9.35449C5.1375 9.71543 5.67188 9.71543 5.68125 9.35449V8.86699ZM5.68125 7.35762C5.67656 6.99668 5.1375 6.99668 5.13281 7.35762V7.84043C5.13281 8.19668 5.67656 8.19668 5.68125 7.84043V7.35762ZM19.9688 8.44043C19.9688 8.04668 19.65 7.72793 19.2563 7.72793H8.48438C8.09063 7.72793 7.77188 8.04668 7.77188 8.44043V15.8186C7.77188 16.2123 8.09063 16.5311 8.48438 16.5311H19.2563C19.65 16.5311 19.9688 16.2123 19.9688 15.8186V8.44043ZM2.94375 20.2857L4.50938 22.9201C4.55625 22.9998 4.65938 23.0279 4.74375 22.9764L12.6234 18.2889H3.88125C3.91406 19.0623 3.55781 19.8123 2.94375 20.2857ZM19.425 8.44043V15.8186C19.425 15.9123 19.35 15.9873 19.2563 15.9873H8.48438C8.39531 15.9873 8.31563 15.9123 8.31563 15.8186V8.44043C8.31563 8.34668 8.39063 8.27168 8.48438 8.27168H19.2563C19.35 8.27637 19.425 8.35137 19.425 8.44043ZM12.7734 11.5295C14.2547 11.4826 14.2594 9.33105 12.7734 9.28418C11.2922 9.33105 11.2922 11.4826 12.7734 11.5295ZM14.7047 13.217C13.2234 13.2639 13.2234 15.4154 14.7047 15.4623C16.1906 15.4154 16.1953 13.2639 14.7047 13.217ZM15.6891 9.38731L11.2734 15.0217C11.0531 15.3029 11.4844 15.6451 11.7047 15.3592L16.1156 9.72949C16.3359 9.44355 15.9094 9.11074 15.6891 9.38731ZM13.35 10.4045C13.3359 9.64981 12.2109 9.64981 12.1969 10.4045C12.2109 11.1639 13.3359 11.1639 13.35 10.4045ZM14.1328 14.3373C14.1516 15.1014 15.2625 15.0967 15.2859 14.3373C15.2719 13.5873 14.1469 13.5826 14.1328 14.3373ZM1.67813 1.84043C2.02031 1.84043 2.30625 1.55918 2.30625 1.2123C2.30625 1.0623 2.42813 0.94043 2.57813 0.94043C2.72813 0.94043 2.85 1.0623 2.85 1.2123C2.85 1.55449 3.12656 1.84043 3.47344 1.84043C3.82969 1.84043 3.82969 2.38418 3.47344 2.38887C3.13125 2.38887 2.85 2.66543 2.85 3.0123C2.85 3.37324 2.30156 3.36855 2.30156 3.0123C2.30156 2.67012 2.02031 2.38887 1.67344 2.38887C1.31719 2.37949 1.32188 1.84512 1.67813 1.84043ZM2.43281 2.1123C2.48438 2.15449 2.53594 2.20605 2.57813 2.25762C2.62031 2.20137 2.67188 2.15449 2.72344 2.1123C2.67188 2.06543 2.62031 2.01855 2.57813 1.96699C2.53125 2.01855 2.48438 2.06543 2.43281 2.1123ZM11.9719 23.1686C11.625 23.1686 11.3484 23.4498 11.3484 23.792C11.3484 24.1482 10.8047 24.1482 10.8 23.792C10.8 23.4451 10.5188 23.1686 10.1766 23.1686C9.82031 23.1686 9.82031 22.6248 10.1766 22.6201C10.5234 22.6201 10.8 22.3389 10.8 21.9967C10.8 21.8467 10.9219 21.7248 11.0719 21.7248C11.2219 21.7248 11.3438 21.8467 11.3438 21.9967C11.3438 22.3436 11.625 22.6201 11.9672 22.6201C12.3281 22.6201 12.3281 23.1639 11.9719 23.1686ZM11.2172 22.892C11.1656 22.8451 11.1141 22.7982 11.0719 22.7467C11.025 22.7982 10.9781 22.8498 10.9266 22.892C10.9781 22.9389 11.0297 22.9857 11.0719 23.0373C11.1188 22.9857 11.1656 22.9389 11.2172 22.892ZM15.9422 20.2717C15.6 20.2717 15.3188 20.5529 15.3188 20.8998C15.3141 21.2607 14.775 21.2561 14.7703 20.8998C14.7703 20.5576 14.4891 20.2717 14.1422 20.2717C13.7813 20.267 13.7813 19.7326 14.1422 19.7232C14.4844 19.7232 14.7703 19.442 14.7703 19.0951C14.7703 18.9451 14.8922 18.8232 15.0422 18.8232C15.1922 18.8232 15.3141 18.9451 15.3141 19.0951C15.3141 19.4373 15.5906 19.7232 15.9375 19.7232C16.3031 19.7279 16.3031 20.2623 15.9422 20.2717ZM15.1922 19.9951C15.1406 19.9529 15.0891 19.9014 15.0469 19.8498C15 19.9061 14.9531 19.9529 14.9016 19.9951C14.9531 20.0373 15.0047 20.0889 15.0469 20.1404C15.0891 20.0889 15.1406 20.042 15.1922 19.9951ZM7.59375 2.42637C8.08125 2.42637 8.475 2.02793 8.475 1.54512C8.47969 1.18418 9.01406 1.18887 9.02344 1.54512C9.02344 2.03262 9.42188 2.42637 9.90469 2.42637C10.2656 2.43105 10.2609 2.96543 9.90469 2.9748C9.41719 2.9748 9.02344 3.37324 9.02344 3.85605C9.01875 4.21699 8.48438 4.2123 8.475 3.85605C8.475 3.36855 8.07656 2.9748 7.59375 2.9748C7.23281 2.96543 7.23281 2.43105 7.59375 2.42637ZM8.43281 2.69824C8.55469 2.7873 8.6625 2.89043 8.75156 3.01699C8.84063 2.89512 8.94844 2.7873 9.07031 2.69824C8.94844 2.60918 8.84531 2.50605 8.75156 2.37949C8.6625 2.50605 8.55469 2.60918 8.43281 2.69824ZM21.6563 22.6811C21.1688 22.6811 20.775 23.0795 20.775 23.5623C20.775 23.9186 20.2313 23.9186 20.2266 23.5623C20.2266 23.0748 19.8281 22.6811 19.3453 22.6811C18.9891 22.6811 18.9891 22.1373 19.3453 22.1326C19.8328 22.1326 20.2266 21.7342 20.2266 21.2514C20.2266 20.8951 20.7703 20.8951 20.775 21.2514C20.775 21.7389 21.1734 22.1326 21.6563 22.1326C22.0172 22.1373 22.0125 22.6811 21.6563 22.6811ZM20.8172 22.4092C20.6953 22.3201 20.5875 22.2123 20.5031 22.0951C20.4141 22.217 20.3063 22.3248 20.1891 22.4092C20.3109 22.4982 20.4188 22.6061 20.5031 22.7232C20.5875 22.6061 20.6953 22.4982 20.8172 22.4092Z" fill="#010101"/>
</g>
<defs>
<clipPath id="clip0_91_4127">
<rect width="24" height="24" fill="white" transform="translate(0 0.5)"/>
</clipPath>
</defs>
</svg>
