<svg width="48" height="48" viewBox="0 0 48 48" fill="none" xmlns="http://www.w3.org/2000/svg">
<path d="M36.9171 34.9026C33.3517 37.5745 28.184 39.0001 23.7346 39.0001C17.4959 39.0001 11.8795 36.654 7.63048 32.7521C7.29665 32.4453 7.59576 32.0271 7.99636 32.266C12.5819 34.9787 18.2517 36.6106 24.1085 36.6106C28.0585 36.6106 32.4036 35.7797 36.399 34.0554C37.0025 33.7948 37.5073 34.4573 36.9171 34.9026Z" fill="#FF9900"/>
<path d="M38.6047 33.176C38.1445 32.5968 35.5514 32.9023 34.3874 33.0378C34.0328 33.0803 33.9787 32.7774 34.2981 32.5596C36.3634 31.1329 39.7524 31.5447 40.1476 32.0229C40.5428 32.5038 40.0447 35.838 38.1039 37.4293C37.8062 37.6738 37.5219 37.5436 37.6546 37.2195C38.0904 36.1515 39.0675 33.7578 38.6047 33.176Z" fill="#FF9900"/>
<path d="M26.0839 21.2688V20.4362C23.3052 20.4362 20.3698 21.0309 20.3698 24.307C20.3698 25.9666 21.2293 27.0911 22.7052 27.0911C23.7864 27.0911 24.754 26.4261 25.3649 25.3449C26.1218 24.015 26.0839 22.7662 26.0839 21.2688ZM29.9601 30.6374C29.706 30.8645 29.3384 30.8807 29.0518 30.7293C27.776 29.6697 27.549 29.1778 26.8462 28.1669C24.7378 30.3185 23.2458 30.9618 20.5103 30.9618C17.2775 30.9618 14.7583 28.967 14.7583 24.9719C14.7583 21.8526 16.4504 19.728 18.8561 18.6901C20.9428 17.7711 23.8566 17.6089 26.0839 17.3548V16.8574C26.0839 15.9438 26.1542 14.8626 25.619 14.0733C25.1487 13.3651 24.2513 13.0732 23.462 13.0732C21.997 13.0732 20.6887 13.8247 20.3698 15.3816C20.3049 15.7276 20.0508 16.0682 19.7048 16.0844L15.9747 15.6843C15.6611 15.6141 15.3151 15.36 15.4016 14.8788C16.2612 10.3594 20.3427 8.99707 23.9972 8.99707C25.8677 8.99707 28.3112 9.49443 29.7871 10.9108C31.6576 12.657 31.4792 14.987 31.4792 17.5224V23.5123C31.4792 25.3125 32.2252 26.1018 32.928 27.0748C33.1766 27.4208 33.2307 27.8371 32.9172 28.0966C32.1333 28.7507 30.7385 29.9671 29.9709 30.6482L29.9601 30.6374Z" fill="#221F1F"/>
</svg>
