<svg width="25" height="25" viewBox="0 0 25 25" fill="none" xmlns="http://www.w3.org/2000/svg">
<path d="M7.77823 14.0851C7.25023 14.0653 6.73728 14.032 6.27987 13.9929C6.51608 13.7585 6.69608 13.508 7.04862 13.5158C7.35819 13.497 7.5583 13.797 7.77823 14.0851ZM10.4457 13.5158C10.1389 13.4959 9.94006 13.804 9.72463 14.0881C10.3079 14.0693 10.7934 14.0368 11.1929 13.9993C10.9658 13.7638 10.8038 13.5079 10.4457 13.5158ZM5.18802 15.6727C5.14986 15.9863 5.28594 16.3293 5.62953 16.3818C6.66022 16.5672 7.70521 16.6616 8.75244 16.664C9.79153 16.6599 10.8284 16.5676 11.8519 16.3881C12.1945 16.33 12.352 15.9921 12.3112 15.6727C10.4875 15.9546 7.00977 15.9542 5.18802 15.6727ZM8.74963 11.9247C7.56202 11.921 6.37713 11.8111 5.20906 11.5966C5.33464 10.0145 6.8075 8.33608 8.74963 8.33608C10.6918 8.33608 12.1645 10.0145 12.29 11.5966C11.122 11.8111 9.93718 11.921 8.74963 11.9247ZM10.3987 10.3814C10.5939 10.4833 10.9012 10.7256 11.0631 10.4373C11.2163 10.1455 10.8455 10.019 10.653 9.91141C10.6221 9.89437 10.5882 9.88362 10.5531 9.87977C10.518 9.87592 10.4826 9.87904 10.4487 9.88897C10.4149 9.8989 10.3833 9.91543 10.3559 9.93761C10.3285 9.95979 10.3057 9.98718 10.2889 10.0182C10.2721 10.0492 10.2617 10.0833 10.2581 10.1184C10.2545 10.1534 10.2579 10.1889 10.2682 10.2227C10.2784 10.2564 10.2951 10.2878 10.3175 10.3151C10.34 10.3423 10.3675 10.3649 10.3987 10.3814ZM6.78434 10.2346L6.48205 10.5369C6.23319 10.7784 6.61845 11.1634 6.85986 10.9148L7.16216 10.6124C7.41102 10.3709 7.0257 9.98599 6.78434 10.2346ZM8.56058 9.21419C8.37908 9.06574 8.09441 8.58705 7.82333 8.85485C7.77324 8.90496 7.74509 8.97291 7.74509 9.04376C7.74509 9.11461 7.77324 9.18256 7.82333 9.23266C8.00478 9.38112 8.2895 9.85985 8.56053 9.59205C8.61064 9.54195 8.6388 9.474 8.63881 9.40313C8.63882 9.33227 8.61068 9.26431 8.56058 9.21419ZM9.20277 11.4062C9.35745 11.252 9.65277 11.0312 9.42983 10.8015C9.20014 10.5781 8.97927 10.8734 8.82514 11.0279C8.57656 11.2697 8.96117 11.6545 9.20291 11.4062H9.20277ZM5.24506 13.8842C5.27173 13.8876 5.29663 13.8911 5.32475 13.8945C5.63506 13.8911 5.78825 13.7347 5.99802 13.5172C6.60739 12.7672 7.60517 12.8113 8.11808 13.6509C8.50062 14.2549 9.00997 14.2521 9.38778 13.6483C9.89905 12.8077 10.8929 12.7624 11.4816 13.5252C11.6738 13.737 11.8147 13.8895 12.1139 13.8931C12.1762 13.8845 12.2372 13.8761 12.292 13.8684C12.6794 13.7508 12.9736 13.2553 13.1089 12.9488L12.4568 12.1091C11.2345 12.3404 9.99343 12.4576 8.74948 12.4591C7.50554 12.4575 6.26444 12.3404 5.04219 12.1091L4.38767 12.9522C4.49736 13.2209 4.79548 13.8237 5.2452 13.8842H5.24506ZM13.5748 23.1768L21.121 18.8233H10.2632L12.6001 22.9131C12.6467 22.9945 12.7088 23.066 12.7831 23.1234C12.8573 23.1807 12.9421 23.2229 13.0327 23.2474C13.1232 23.2719 13.2177 23.2783 13.3107 23.2661C13.4038 23.254 13.4935 23.2237 13.5748 23.1768ZM12.7957 14.3487C12.6559 14.3574 12.5165 14.3732 12.3782 14.3959C12.3091 14.4124 12.2386 14.4221 12.1676 14.4251C10.9543 14.6829 6.85494 14.6979 5.28059 14.4272C5.21337 14.4249 5.1465 14.4164 5.08086 14.4018C4.96498 14.3858 4.85656 14.3696 4.76211 14.3536C4.27723 14.2885 4.20195 14.977 4.63986 15.0525C5.35114 15.1809 7.1023 15.3628 8.75169 15.3628C10.3981 15.3628 12.1479 15.1809 12.8644 15.0514C13.2823 14.9773 13.2199 14.3452 12.7957 14.3487ZM11.4248 1.8229C10.0936 2.59062 9.43006 2.97133 9.08656 3.15607C9.78031 4.93413 7.40108 6.31516 6.20023 4.83729L3.87894 6.17646H14.7366L12.3995 2.08657C12.353 2.00511 12.2908 1.93364 12.2166 1.87627C12.1424 1.8189 12.0575 1.77676 11.967 1.75226C11.8764 1.72776 11.7819 1.72139 11.6888 1.73351C11.5958 1.74563 11.5061 1.77601 11.4248 1.8229ZM18.6453 10.8968C18.6172 10.0707 17.4195 10.0743 17.3984 10.9036C17.4238 11.7167 18.6206 11.7196 18.6453 10.8968ZM21.5844 13.4894C21.2817 13.4894 20.9715 13.6811 20.9609 14.1097C20.9863 14.9231 22.1831 14.9256 22.2078 14.1031C22.1938 13.6793 21.8855 13.4894 21.5844 13.4894ZM2.07969 6.71084H22.9203C23.1093 6.71084 23.2905 6.7859 23.4241 6.91952C23.5577 7.05314 23.6328 7.23437 23.6328 7.42334V17.5765C23.6328 17.7654 23.5577 17.9467 23.4241 18.0803C23.2905 18.2139 23.1093 18.289 22.9203 18.289H2.07969C1.89072 18.289 1.70949 18.2139 1.57587 18.0803C1.44225 17.9467 1.36719 17.7654 1.36719 17.5765V14.178C3.24153 13.8777 3.24144 11.1397 1.36719 10.84V7.42334C1.36719 7.23437 1.44225 7.05314 1.57587 6.91952C1.70949 6.7859 1.89072 6.71084 2.07969 6.71084ZM13.1488 13.8879C13.3693 13.6207 13.5441 13.3189 13.666 12.9947C13.6808 12.9525 13.6848 12.9073 13.6777 12.8632C13.6705 12.819 13.6524 12.7774 13.625 12.7421L12.8277 11.7155C12.7699 9.61971 10.8912 7.8019 8.74953 7.8019C6.60791 7.8019 4.72916 9.61971 4.67141 11.7155L3.87416 12.7421C3.84769 12.7762 3.82986 12.8161 3.8222 12.8586C3.81453 12.901 3.81726 12.9447 3.83014 12.9859C3.94052 13.3153 4.10686 13.6233 4.32186 13.8963C3.60233 14.247 3.63823 15.3963 4.53969 15.5777C4.57461 15.584 4.61408 15.5905 4.65364 15.597C4.58113 16.196 4.90911 16.8082 5.53592 16.9084C6.59756 17.0989 7.67385 17.196 8.75244 17.1986C9.82338 17.1944 10.892 17.0992 11.9468 16.914C12.5772 16.8052 12.9155 16.1995 12.8455 15.5968C12.8857 15.5902 12.9257 15.5836 12.9612 15.5772C13.8163 15.4347 13.9399 14.2057 13.1488 13.8879ZM15.6172 17.0332C15.6156 16.6837 15.0844 16.6839 15.0828 17.0332V17.3894C15.0844 17.7389 15.6156 17.7387 15.6172 17.3894V17.0332ZM15.6172 15.0905C15.6172 15.0196 15.589 14.9517 15.5389 14.9016C15.4888 14.8515 15.4209 14.8233 15.35 14.8233C15.2791 14.8233 15.2112 14.8515 15.1611 14.9016C15.111 14.9517 15.0828 15.0196 15.0828 15.0905V15.7379C15.0844 16.0874 15.6156 16.0871 15.6172 15.7379V15.0905ZM15.6172 13.1474C15.6172 13.0766 15.589 13.0086 15.5389 12.9585C15.4888 12.9084 15.4209 12.8802 15.35 12.8802C15.2791 12.8802 15.2112 12.9084 15.1611 12.9585C15.111 13.0086 15.0828 13.0766 15.0828 13.1474V13.7952C15.0844 14.1447 15.6156 14.1444 15.6172 13.7952V13.1474ZM15.6172 11.2048C15.6172 11.1339 15.589 11.066 15.5389 11.0159C15.4888 10.9658 15.4209 10.9376 15.35 10.9376C15.2791 10.9376 15.2112 10.9658 15.1611 11.0159C15.111 11.066 15.0828 11.1339 15.0828 11.2048V11.8524C15.0844 12.2019 15.6156 12.2016 15.6172 11.8524V11.2048ZM15.6172 9.26191C15.6172 9.19105 15.589 9.12309 15.5389 9.07298C15.4888 9.02288 15.4209 8.99473 15.35 8.99473C15.2791 8.99473 15.2112 9.02288 15.1611 9.07298C15.111 9.12309 15.0828 9.19105 15.0828 9.26191V9.90954C15.0844 10.259 15.6156 10.2587 15.6172 9.90954V9.26191ZM15.6172 7.61046C15.6156 7.26101 15.0844 7.26115 15.0828 7.61046V7.96671C15.0844 8.31616 15.6156 8.31602 15.6172 7.96671V7.61046ZM19.1797 10.9037V10.8901C19.1281 9.36921 16.9073 9.37019 16.8641 10.9037C16.9118 12.421 19.1317 12.4211 19.1797 10.9036V10.9037ZM18.0406 14.8181L21.9594 10.5431C22.1984 10.2899 21.795 9.92454 21.5656 10.1821L17.6469 14.4571C17.4871 14.6201 17.621 14.9118 17.8438 14.9049C17.8808 14.9049 17.9174 14.8971 17.9513 14.8822C17.9852 14.8672 18.0156 14.8454 18.0406 14.818V14.8181ZM22.7422 14.0965C22.7234 13.3471 22.1455 12.955 21.5844 12.955C21.0232 12.955 20.4453 13.347 20.4266 14.1097C20.4742 15.6274 22.6943 15.6274 22.7422 14.1097V14.0965Z" fill="#DA251D"/>
</svg>
