<svg width="48" height="48" viewBox="0 0 48 48" fill="none" xmlns="http://www.w3.org/2000/svg">
<path d="M39.9787 13.5439C39.9652 13.4987 39.9518 13.4534 39.9338 13.4082C29.3061 13.4127 18.6829 13.4082 8.05969 13.4127C8.03278 13.4444 8.01483 13.4761 8.01035 13.5168C8.01035 21.8276 8.01035 30.134 8.00586 38.4448C8.07315 38.8882 8.3154 39.2908 8.63841 39.594C8.65187 39.5985 8.68327 39.603 8.69673 39.6075C8.86272 39.784 9.10048 39.8699 9.32479 39.9514C9.49078 39.9423 9.65228 40.0147 9.81827 39.9966H23.0076C23.1332 39.9921 23.2633 40.0147 23.3844 39.9649C23.3889 39.9468 23.3934 39.9152 23.3979 39.8971C23.4024 39.8744 23.4068 39.8247 23.4113 39.7975C23.694 38.205 23.9676 36.608 24.2682 35.0155L24.2951 34.8119C23.0749 34.8074 21.8501 34.8119 20.6299 34.8074C20.3338 34.7984 20.0288 34.8074 19.7327 34.7712C19.2257 34.7486 18.7143 34.7667 18.2074 34.7169C17.5793 34.7169 16.9557 34.6581 16.3277 34.6581C15.8342 34.6083 15.3362 34.6264 14.8383 34.6038C14.5153 34.5631 14.1833 34.5812 13.8558 34.5676C13.322 34.5088 12.7791 34.5495 12.2453 34.4907C11.68 34.4952 11.1148 34.4455 10.5495 34.4319C10.554 34.4274 10.5585 34.4093 10.5585 34.4048C10.7469 34.4093 10.9308 34.3957 11.1193 34.3912C11.5365 34.3369 11.9582 34.3731 12.3754 34.3143C12.8105 34.3143 13.2412 34.2555 13.6764 34.2555C14.0622 34.2012 14.4525 34.2328 14.8383 34.1785C15.2914 34.1785 15.7355 34.1197 16.1886 34.1152C16.561 34.0654 16.9378 34.0926 17.3102 34.0428C17.7453 34.0473 18.176 33.9795 18.6111 33.984C19.0373 33.9342 19.4725 33.9478 19.8987 33.9026C19.8583 33.7352 19.8269 33.5678 19.791 33.4004C19.7596 33.2963 19.634 33.319 19.5532 33.3054C18.5797 33.1651 17.6107 33.0249 16.6417 32.8892C16.7045 32.8394 16.7898 32.862 16.8615 32.853C17.6152 32.7942 18.3644 32.7263 19.1181 32.672C19.2885 32.663 19.4545 32.6313 19.625 32.6268C19.5487 32.3915 19.5039 32.1336 19.4007 31.9165C17.7902 31.6676 16.1796 31.446 14.5736 31.179C14.9908 31.1112 15.4125 31.0795 15.8297 31.0343L15.8656 31.0207C17.198 30.8804 18.5349 30.7221 19.8673 30.5909C21.5585 30.5819 23.2453 30.5864 24.9366 30.5909C24.9905 30.5819 25.0847 30.609 25.0936 30.5321C25.2327 29.7992 25.3673 29.0663 25.5064 28.3334C25.6993 27.3154 26.0043 26.3111 26.4754 25.3836C27.2156 23.8906 28.3865 22.6239 29.8131 21.7824C31.1455 20.9952 32.6887 20.6152 34.223 20.5428C34.7209 20.4975 35.2234 20.5111 35.7169 20.5744C36.0399 20.6514 36.3718 20.7418 36.6275 20.9635C36.8384 21.1354 36.964 21.3888 37.0582 21.6421C37.2646 22.2439 37.3812 22.8682 37.4799 23.497C37.4844 23.7504 37.5293 24.0354 37.3947 24.2661C37.2691 24.4924 37.0178 24.6009 36.7801 24.6688C35.9142 24.895 35.008 24.6824 34.1422 24.895C33.4289 25.0488 32.765 25.447 32.3119 26.0215C31.778 26.6911 31.4954 27.5235 31.3384 28.356C31.2172 29.0979 31.0647 29.8399 30.9436 30.5864C31.796 30.5909 32.6528 30.5819 33.5097 30.5909C33.8506 30.5909 34.2005 30.7809 34.3396 31.1067C34.519 31.5229 34.4787 31.9934 34.4204 32.4322C34.3486 32.9254 34.2319 33.414 34.0121 33.8664C33.8282 34.2509 33.5231 34.6038 33.1059 34.7395C32.8906 34.8255 32.6573 34.8074 32.4285 34.8074C31.6748 34.8074 30.9212 34.8165 30.1675 34.8074C30.0464 35.3639 29.9656 35.9339 29.8579 36.4994C29.6605 37.5988 29.4676 38.7027 29.2702 39.8066C29.2658 39.8428 29.2613 39.9197 29.2613 39.9604C29.6157 39.9785 29.9701 39.9604 30.3245 39.9695C32.9534 39.9695 35.5868 39.9649 38.2201 39.9695C38.5028 39.9785 38.7899 39.9106 39.0366 39.7704C39.1847 39.7161 39.2744 39.5849 39.4045 39.5125C39.5301 39.4401 39.566 39.2908 39.6736 39.1958C39.7903 38.9877 39.9114 38.7706 39.9204 38.5262C39.9338 38.5262 39.9697 38.5217 39.9877 38.5172C39.9742 30.1928 39.9877 21.8684 39.9787 13.5439Z" fill="url(#paint0_linear_91_5754)" stroke="#FCD109" stroke-width="0.094"/>
<path d="M12.1915 8.06973C12.5729 7.94758 12.9721 8.02901 13.3624 8.00187C20.6883 8.00639 28.0142 8.00187 35.3401 8.00187C35.7753 7.98377 36.1566 8.2326 36.5603 8.35927C36.8833 8.49047 37.2198 8.59453 37.5428 8.73478C37.6101 8.76192 37.6594 8.82074 37.7088 8.8705C37.7043 9.46769 37.7088 10.0694 37.7088 10.6711C37.7133 10.8295 37.6864 10.9923 37.7402 11.1461C37.8344 11.1597 37.8838 11.2321 37.9466 11.2909C38.2426 11.4266 38.4939 11.6483 38.763 11.8293C39.1668 12.1188 39.5975 12.3722 39.9922 12.6708C40.0102 12.7884 39.9967 12.9106 39.9608 13.0191C39.9205 13.1458 39.9474 13.2815 39.9339 13.4082C29.3062 13.4127 18.683 13.4082 8.05978 13.4127C8.03735 13.2634 8.07772 13.1141 8.01492 12.9739C8.00595 12.8563 7.96557 12.7025 8.07772 12.621C8.52634 12.3043 9.00187 12.0193 9.44152 11.6845C9.71517 11.5081 9.97985 11.3271 10.2445 11.1461C10.2984 11.0557 10.2804 10.9426 10.2804 10.843C10.2804 10.187 10.2804 9.53103 10.2849 8.87503C10.4374 8.67596 10.7021 8.65334 10.913 8.55381C11.3392 8.39094 11.7698 8.2326 12.1915 8.06973ZM12.2184 8.14664C11.6442 8.36832 11.0655 8.58096 10.4913 8.80264C10.415 8.81621 10.3746 8.88407 10.3343 8.94289C10.3387 8.97908 10.3432 9.04242 10.3432 9.07861C10.3387 9.62151 10.3432 10.1644 10.3387 10.7073C10.3432 10.843 10.3253 10.9788 10.3746 11.1009C10.3163 11.1597 10.2535 11.2185 10.1817 11.2638C9.53124 11.689 8.90318 12.1505 8.25268 12.5713C8.14053 12.6391 8.01492 12.7296 8.05081 12.8789C8.02838 12.9603 8.06875 13.0282 8.15399 13.0056C9.56264 12.9965 10.9668 13.0146 12.3755 12.992C14.4705 12.992 16.561 12.9965 18.6561 12.992L18.6875 12.9784C18.7817 13.001 18.8759 12.992 18.9746 12.992C22.7699 12.992 26.5652 12.9965 30.365 12.992C31.5583 12.9965 32.7561 12.992 33.9539 12.992C35.9278 12.992 37.9062 13.0101 39.8801 13.001C39.9384 12.9875 39.9564 12.9468 39.9339 12.8744C39.9294 12.802 39.9564 12.7025 39.8801 12.6572C39.5661 12.5079 39.2969 12.2772 38.9963 12.0962C38.8887 12.0057 38.7496 11.956 38.6688 11.8338C38.3593 11.6574 38.0722 11.4402 37.7671 11.2457C37.7088 11.2095 37.6639 11.1507 37.6146 11.1009C37.6415 11.0059 37.6505 10.9018 37.6505 10.8023C37.646 10.2277 37.6505 9.65318 37.646 9.07861C37.6594 8.98813 37.655 8.88407 37.5742 8.82526C37.0359 8.63072 36.502 8.42261 35.9682 8.22355C35.8022 8.14211 35.6182 8.09687 35.4388 8.06973H12.51C12.4114 8.07425 12.3171 8.12402 12.2184 8.14664Z" fill="#F8F3B5" stroke="#F8F3B5" stroke-width="0.094"/>
<path d="M10.3431 9.0791C10.7379 9.24649 11.1596 9.3415 11.5589 9.50437C11.7742 9.59033 11.8415 9.82559 11.9357 10.0156C11.8415 10.1106 11.7293 10.1875 11.6172 10.2599C11.2045 10.5404 10.7828 10.8118 10.3745 11.1014C10.3252 10.9792 10.3431 10.8435 10.3386 10.7078C10.3431 10.1649 10.3386 9.622 10.3431 9.0791ZM36.4301 9.50437C36.8294 9.34603 37.2466 9.23745 37.6459 9.0791C37.6503 9.65367 37.6459 10.2282 37.6503 10.8028C37.6503 10.9023 37.6414 11.0064 37.6145 11.1014C37.2645 10.8571 36.9101 10.6264 36.5602 10.3866C36.3897 10.2599 36.2013 10.1649 36.0488 10.0111C36.143 9.82106 36.2148 9.59033 36.4301 9.50437Z" fill="#F7B402" stroke="#F7B402" stroke-width="0.094"/>
<path d="M17.1892 9.68965C17.6826 9.57202 18.2344 10.0154 18.1941 10.5357C18.1985 11.0469 17.6647 11.4631 17.1757 11.3455C16.9783 11.2776 16.7899 11.1736 16.6688 10.9971C16.5118 10.7573 16.4759 10.4361 16.6015 10.1737C16.6912 9.92038 16.9335 9.74846 17.1892 9.68965ZM29.9882 9.97467C30.1945 9.74394 30.522 9.61274 30.8271 9.69417C31.0559 9.76204 31.2802 9.91133 31.3789 10.1375C31.5763 10.5266 31.4237 11.0514 31.0379 11.255C30.697 11.445 30.2663 11.3545 30.0061 11.0786C29.7414 10.7754 29.7235 10.2778 29.9882 9.97467Z" fill="#BDA727" stroke="#BDA727" stroke-width="0.094"/>
<path d="M11.6174 10.2596C11.7296 10.1872 11.8417 10.1103 11.9359 10.0153L11.9673 10.0469C11.9987 10.2822 11.9763 10.522 11.9853 10.7572C11.9718 11.463 11.9987 12.1733 11.9673 12.879C10.6619 12.879 9.3564 12.87 8.05092 12.879C8.01503 12.7298 8.14065 12.6393 8.2528 12.5714C8.90329 12.1507 9.53136 11.6892 10.1818 11.2639C10.2536 11.2187 10.3164 11.1599 10.3748 11.1011C10.783 10.8115 11.2047 10.5401 11.6174 10.2596ZM36.0042 10.1691C36.0042 10.1103 36.0176 10.0605 36.049 10.0107C36.2016 10.1646 36.39 10.2596 36.5604 10.3862C36.9104 10.626 37.2648 10.8568 37.6147 11.1011C37.664 11.1508 37.7089 11.2096 37.7672 11.2458C38.0723 11.4404 38.3594 11.6575 38.6689 11.834C38.7497 11.9561 38.8888 12.0059 38.9964 12.0964C39.297 12.2773 39.5662 12.5081 39.8802 12.6574C39.9565 12.7026 39.9296 12.8021 39.934 12.8745C38.6286 12.879 37.3276 12.87 36.0221 12.879C35.9997 12.6981 36.0131 12.5171 36.0087 12.3407C36.0087 11.6168 35.9997 10.893 36.0042 10.1691Z" fill="#F7E62D" stroke="#F7E62D" stroke-width="0.094"/>
<path d="M39.9339 12.874C38.6284 12.8785 37.3275 12.8695 36.022 12.8785C35.9996 12.6975 36.013 12.5166 36.0085 12.3401C36.0085 11.6163 35.9996 10.8924 36.004 10.1685C36.004 10.1097 36.0175 10.06 36.0489 10.0102C36.1431 9.82018 36.2149 9.58945 36.4302 9.50349C36.8295 9.34514 37.2467 9.23657 37.646 9.07822C37.6594 8.98774 37.6549 8.88368 37.5742 8.82487C37.0359 8.63033 36.502 8.42222 35.9681 8.22316C35.8022 8.14172 35.6182 8.09648 35.4388 8.06934H12.51C12.4113 8.07386 12.3171 8.12363 12.2184 8.14625C11.6442 8.36793 11.0655 8.58056 10.4913 8.80225C10.415 8.81582 10.3746 8.88368 10.3342 8.9425C10.3387 8.97869 10.3432 9.04203 10.3432 9.07822C10.738 9.24561 11.1597 9.34062 11.559 9.50349C11.7743 9.58945 11.8416 9.8247 11.9358 10.0147L11.9672 10.0464C11.9986 10.2816 11.9762 10.5214 11.9852 10.7567C11.9717 11.4624 11.9986 12.1727 11.9672 12.8785C10.6617 12.8785 9.35626 12.8695 8.05079 12.8785C8.02836 12.9599 8.06874 13.0278 8.15397 13.0052C9.56263 12.9961 10.9668 13.0142 12.3754 12.9916C14.4705 12.9916 16.561 12.9961 18.6561 12.9916L18.6875 12.978C18.7817 13.0007 18.8759 12.9916 18.9746 12.9916C22.7699 12.9916 26.5652 12.9961 30.3649 12.9916C31.5583 12.9961 32.7561 12.9916 33.9539 12.9916C35.9278 12.9916 37.9062 13.0097 39.8801 13.0007C39.9384 12.9871 39.9563 12.9464 39.9339 12.874ZM16.6014 10.1731C16.6911 9.91971 16.9334 9.74779 17.1891 9.68898C17.6826 9.57135 18.2344 10.0147 18.194 10.535C18.1985 11.0462 17.6646 11.4624 17.1756 11.3448C16.9782 11.277 16.7898 11.1729 16.6687 10.9965C16.5117 10.7567 16.4758 10.4355 16.6014 10.1731ZM29.9881 9.974C30.1945 9.74327 30.522 9.61207 30.827 9.6935C31.0558 9.76137 31.2801 9.91066 31.3788 10.1369C31.5762 10.5259 31.4237 11.0507 31.0379 11.2543C30.6969 11.4443 30.2662 11.3539 30.006 11.0779C29.7414 10.7748 29.7234 10.2771 29.9881 9.974Z" fill="url(#paint1_radial_91_5754)" stroke="#FCD109" stroke-width="0.094"/>
<path d="M31.1316 14.8627C31.1944 14.8763 30.8045 14.485 30.8808 14.4669C30.9526 14.4759 31.2249 14.2628 31.5537 14.4366C31.8825 14.6103 31.8009 15.017 31.7637 15.1681C31.7192 15.3477 31.6057 15.4622 31.516 15.5527C31.4667 15.5934 31.3559 15.6567 31.2886 15.6522C31.329 15.4305 31.1989 15.3943 31.1899 15.1681L31.1316 14.8627Z" fill="url(#paint2_linear_91_5754)" stroke="#FCD109" stroke-width="0.094"/>
<path d="M16.7906 15.1078C16.7817 15.334 16.6516 15.3702 16.6919 15.5919C16.6246 15.5964 16.5138 15.533 16.4645 15.4923C16.3748 15.4018 16.2617 15.2874 16.2173 15.1078C16.1801 14.9571 16.0984 14.5504 16.4273 14.3762C16.7561 14.202 17.0284 14.4156 17.1002 14.4065C17.1764 14.4246 16.7866 14.816 16.8494 14.8024L16.7906 15.1078Z" fill="url(#paint3_linear_91_5754)" stroke="#FCD109" stroke-width="0.094"/>
<path d="M30.5444 17.7604C30.6117 17.7012 30.6566 17.7012 30.7463 17.7012C30.208 18.8774 29.5799 20.0537 28.6356 20.9694C28.5346 21.0603 28.4279 21.1445 28.3162 21.2219C28.208 21.3015 28.1022 21.3766 27.9967 21.4526C27.8936 21.525 27.7908 21.5974 27.6912 21.6734C27.4355 21.8136 27.2112 22.0082 26.9286 22.0941C26.4127 22.3429 25.8564 22.5103 25.2956 22.628C25.0758 22.6642 24.8515 22.7184 24.6272 22.723C24.349 22.8044 24.053 22.7456 23.7703 22.7637C23.6133 22.7908 23.4742 22.7004 23.3217 22.7184C23.1894 22.6994 23.0575 22.6768 22.926 22.6506C22.7928 22.623 22.6605 22.5913 22.5295 22.5556C20.473 21.9086 18.4542 20.3252 17.8661 18.1834C17.8396 18.0391 17.8262 17.893 17.8262 17.746C17.889 17.8726 17.954 17.9984 18.0213 18.1228C18.858 19.9628 20.5179 21.4105 22.4788 21.8471C22.638 21.9204 22.8103 21.8946 22.9628 21.9579C23.1019 21.9579 23.2365 21.9534 23.3711 21.9987C23.8331 22.0077 24.2952 22.0032 24.7573 22.0032C24.8201 22.0077 24.8784 21.976 24.9412 21.9625C25.7115 21.9362 26.4661 21.7245 27.1686 21.4033C27.309 21.339 27.4476 21.2703 27.5836 21.1979C27.7024 21.1345 27.8191 21.0662 27.9321 20.9925C28.0434 20.9201 28.1511 20.8432 28.256 20.7618C29.0864 20.0985 29.8042 19.2389 30.2919 18.2504C30.3843 18.0735 30.4695 17.9088 30.5444 17.7604Z" fill="#BDA727" stroke="#BDA727" stroke-width="0.094"/>
<path d="M29.8132 21.7829C31.1456 20.9957 32.6888 20.6156 34.2231 20.5432C34.721 20.498 35.2235 20.5116 35.717 20.5749C36.04 20.6518 36.3719 20.7423 36.6277 20.964C36.4976 20.973 36.3719 20.9142 36.2418 20.8961C35.874 20.8237 35.4927 20.8509 35.1203 20.8418C34.0391 20.8418 32.949 20.9278 31.9037 21.2264C31.3564 21.3938 30.8091 21.5883 30.3111 21.8779C29.4498 22.3574 28.6737 22.9908 28.0456 23.7509C26.9241 25.0493 26.2646 26.6961 25.9461 28.3745C25.7936 29.2748 25.6186 30.1706 25.4796 31.0754C25.2553 31.0981 25.0265 31.0845 24.8021 31.0845C23.8152 31.08 22.8282 31.0755 21.8413 31.0664C21.6304 31.0755 21.4241 31.0257 21.2132 31.0393C19.4188 31.0483 17.6243 31.0347 15.8298 31.0347L15.8657 31.0212C17.1981 30.8809 18.535 30.7226 19.8674 30.5914C21.5587 30.5823 23.2455 30.5868 24.9367 30.5914C24.9906 30.5823 25.0848 30.6095 25.0937 30.5326C25.2328 29.7996 25.3674 29.0667 25.5065 28.3338C25.6994 27.3159 26.0044 26.3115 26.4755 25.3841C27.2157 23.8911 28.3866 22.6243 29.8132 21.7829Z" fill="#0D69B3" stroke="#0D69B3" stroke-width="0.094"/>
<path d="M31.9037 21.2263C32.9489 20.9278 34.0391 20.8418 35.1202 20.8418C35.4926 20.8508 35.8739 20.8237 36.2418 20.8961C36.3719 20.9142 36.4975 20.973 36.6276 20.9639C36.8384 21.1359 36.9641 21.3892 37.0583 21.6426C37.2646 22.2443 37.3813 22.8686 37.48 23.4975C37.4844 23.7508 37.5293 24.0358 37.3947 24.2666C37.2691 24.4928 37.0179 24.6014 36.7801 24.6692C35.9143 24.8954 35.0081 24.6828 34.1423 24.8954C33.429 25.0492 32.765 25.4474 32.3119 26.0219C31.7781 26.6915 31.4954 27.524 31.3384 28.3564C31.2173 29.0984 31.0648 29.8403 30.9436 30.5868C30.8898 30.7542 30.8584 30.9352 30.827 31.1116C31.6749 31.1252 32.5228 31.1116 33.3706 31.1207C33.6936 31.1116 34.0166 31.1297 34.3397 31.1071C34.5191 31.5233 34.4787 31.9938 34.4204 32.4327C34.3486 32.9258 34.232 33.4144 34.0122 33.8668C33.8282 34.2514 33.5232 34.6042 33.106 34.74C32.8906 34.8259 32.6573 34.8078 32.4285 34.8078C31.6749 34.8078 30.9212 34.8169 30.1675 34.8078C30.0464 35.3643 29.9656 35.9343 29.858 36.4999C29.6606 37.5992 29.4677 38.7031 29.2703 39.807C29.2658 39.8432 29.2613 39.9201 29.2613 39.9608V39.9654C27.3009 39.9654 25.3449 39.9699 23.3845 39.9654C23.3889 39.9473 23.3934 39.9156 23.3979 39.8975C23.4024 39.8749 23.4069 39.8251 23.4114 39.798C23.4159 39.8342 23.4203 39.902 23.4248 39.9337C23.546 39.9473 23.7658 40.0106 23.7972 39.8342C24.1022 38.1693 24.3849 36.4953 24.6989 34.8305C24.5778 34.8033 24.4522 34.8033 24.3265 34.8259C24.3086 34.8893 24.2907 34.9526 24.2682 35.0159L24.2951 34.8124C23.0749 34.8078 21.8502 34.8124 20.63 34.8078C20.3339 34.7988 20.0288 34.8078 19.7327 34.7716C19.2258 34.749 18.7144 34.7671 18.2074 34.7173C17.5794 34.7173 16.9558 34.6585 16.3277 34.6585C15.8343 34.6088 15.3363 34.6269 14.8383 34.6042C14.5153 34.5635 14.1833 34.5816 13.8559 34.568C13.322 34.5092 12.7792 34.55 12.2453 34.4911C11.6801 34.4957 11.1148 34.4459 10.5496 34.4323C10.554 34.4278 10.5585 34.4097 10.5585 34.4052C10.747 34.4097 10.9309 34.3961 11.1193 34.3916C11.5365 34.3373 11.9582 34.3735 12.3754 34.3147C12.8106 34.3147 13.2413 34.2559 13.6764 34.2559C14.0622 34.2016 14.4525 34.2333 14.8383 34.179C15.2914 34.179 15.7356 34.1202 16.1887 34.1156C16.561 34.0659 16.9378 34.093 17.3102 34.0432C17.7454 34.0478 18.176 33.9799 18.6112 33.9844C19.0374 33.9347 19.4725 33.9482 19.8987 33.903C19.8583 33.7356 19.8269 33.5682 19.791 33.4008C19.7596 33.2968 19.634 33.3194 19.5533 33.3058C18.5798 33.1656 17.6108 33.0253 16.6418 32.8896C16.7046 32.8398 16.7898 32.8624 16.8616 32.8534C17.6153 32.7946 18.3644 32.7267 19.1181 32.6724C19.2886 32.6634 19.4546 32.6317 19.6251 32.6272C19.5488 32.3919 19.5039 32.1341 19.4007 31.9169C17.7902 31.6681 16.1797 31.4464 14.5736 31.1795C14.9909 31.1116 15.4126 31.0799 15.8298 31.0347C17.6242 31.0347 19.4187 31.0483 21.2132 31.0392C21.424 31.0256 21.6304 31.0754 21.8412 31.0664C22.8282 31.0754 23.8151 31.0799 24.8021 31.0845C25.0264 31.0845 25.2552 31.098 25.4795 31.0754C25.6186 30.1706 25.7935 29.2748 25.9461 28.3745C26.2646 26.696 26.924 25.0493 28.0456 23.7508C28.6736 22.9908 29.4497 22.3574 30.3111 21.8778C30.809 21.5883 31.3564 21.3937 31.9037 21.2263Z" fill="#107BD4" stroke="#107BD4" stroke-width="0.094"/>
<path d="M30.9436 30.5869C31.796 30.5914 32.6529 30.5824 33.5097 30.5914C33.8507 30.5914 34.2006 30.7815 34.3397 31.1072C34.0167 31.1298 33.6936 31.1117 33.3706 31.1208C32.5228 31.1117 31.6749 31.1253 30.827 31.1117C30.8584 30.9353 30.8898 30.7543 30.9436 30.5869ZM24.3266 34.826C24.4522 34.8034 24.5778 34.8034 24.6989 34.8306C24.3849 36.4954 24.1022 38.1694 23.7972 39.8343C23.7658 40.0107 23.546 39.9474 23.4248 39.9338C23.4203 39.9021 23.4159 39.8343 23.4114 39.7981C23.694 38.2056 23.9677 36.6085 24.2682 35.0161C24.2907 34.9527 24.3086 34.8894 24.3266 34.826Z" fill="#0D69B3" stroke="#0D69B3" stroke-width="0.094"/>
<path d="M31.3361 14.989C31.3002 14.9211 31.2957 14.8397 31.2957 14.7628L31.2598 14.7673C31.206 14.5683 31.04 14.3782 30.8247 14.3692C30.6632 14.3556 30.4613 14.3602 30.3671 14.514C30.1877 14.7583 30.2729 15.0704 30.2639 15.3464C30.2639 15.3645 30.2684 15.3962 30.2684 15.4143C30.2684 15.5998 30.246 15.7807 30.2146 15.9617C30.1877 16.016 30.1742 16.0748 30.1742 16.1381C30.0979 16.5634 29.9454 16.9842 29.739 17.3687C29.6987 17.423 29.6673 17.4818 29.6538 17.5451C29.5192 17.7804 29.3577 17.9976 29.1917 18.2147C29.1648 18.2373 29.1424 18.2645 29.1199 18.2916C29.0033 18.4364 28.8777 18.5586 28.7476 18.6852C28.7162 18.7033 28.6938 18.726 28.6668 18.744C28.5143 18.8933 28.3438 19.0336 28.1599 19.1467C28.1375 19.1603 28.1151 19.1784 28.0881 19.1965C26.9397 19.961 25.5445 20.2777 24.1852 20.2913C23.0322 20.3275 21.8703 20.0787 20.8295 19.5765C20.8116 19.5674 20.7667 19.5493 20.7488 19.5403C20.5738 19.4453 20.3944 19.3639 20.2329 19.2462C20.197 19.2281 20.1611 19.2055 20.1207 19.1874C19.9547 19.0879 19.7977 18.9793 19.6497 18.8526C19.6003 18.8074 19.5465 18.7712 19.4927 18.7305C19.3312 18.5993 19.1652 18.459 19.0261 18.3007C18.9902 18.26 18.9543 18.2238 18.9184 18.1876C18.4294 17.6763 18.0481 17.052 17.8462 16.3734C17.6533 15.835 17.6802 15.2469 17.6578 14.6814C17.4963 14.4325 17.1554 14.2923 16.8862 14.4461C16.774 14.5275 16.7606 14.6768 16.6753 14.7809C16.5363 16.2739 17.1688 17.7623 18.1782 18.8391C18.1782 18.8752 18.1962 18.8979 18.2276 18.9114C18.407 19.0788 18.582 19.2508 18.7614 19.4136C18.7928 19.4453 18.8287 19.477 18.8691 19.5041C19.0485 19.6534 19.2414 19.7891 19.4298 19.9294C19.4657 19.9565 19.5016 19.9791 19.542 20.0018C19.7887 20.1465 20.022 20.3184 20.2867 20.418C20.3047 20.4316 20.3361 20.4542 20.354 20.4632C21.2064 20.8749 22.126 21.1554 23.0681 21.2459C23.1713 21.2459 23.2745 21.2549 23.3777 21.2776C23.8263 21.3047 24.2749 21.2911 24.7235 21.2821C26.1097 21.1599 27.5408 20.8206 28.6982 19.9972L28.7117 20.0153C28.7476 19.9837 28.779 19.9565 28.8149 19.9294C28.9988 19.7936 29.1783 19.6489 29.3577 19.4996C29.3981 19.4679 29.443 19.4317 29.4833 19.391C29.6807 19.1738 29.9095 18.9748 30.0755 18.726L30.1024 18.7395C30.1159 18.7169 30.1383 18.6717 30.1518 18.649C30.3043 18.4409 30.4434 18.2238 30.5779 18.0066C30.5869 17.993 30.6094 17.9704 30.6183 17.9568L30.6004 17.9387C30.6138 17.9207 30.6452 17.8845 30.6587 17.8664C30.9054 17.3597 31.1253 16.8303 31.2015 16.2693C31.2329 16.2558 31.2509 16.2286 31.2509 16.197C31.2554 16.016 31.3182 15.8441 31.3002 15.6631C31.3406 15.4414 31.3451 15.2152 31.3361 14.989Z" fill="white" stroke="white" stroke-width="0.094"/>
<mask id="mask0_91_5754" style="mask-type:luminance" maskUnits="userSpaceOnUse" x="16" y="14" width="16" height="8">
<path d="M31.3361 14.989C31.3002 14.9211 31.2957 14.8397 31.2957 14.7628L31.2598 14.7673C31.206 14.5683 31.04 14.3782 30.8247 14.3692C30.6632 14.3556 30.4613 14.3602 30.3671 14.514C30.1877 14.7583 30.2729 15.0704 30.2639 15.3464C30.2639 15.3645 30.2684 15.3962 30.2684 15.4143C30.2684 15.5998 30.246 15.7807 30.2146 15.9617C30.1877 16.016 30.1742 16.0748 30.1742 16.1381C30.0979 16.5634 29.9454 16.9842 29.739 17.3687C29.6987 17.423 29.6673 17.4818 29.6538 17.5451C29.5192 17.7804 29.3577 17.9976 29.1917 18.2147C29.1648 18.2373 29.1424 18.2645 29.1199 18.2916C29.0033 18.4364 28.8777 18.5586 28.7476 18.6852C28.7162 18.7033 28.6938 18.726 28.6668 18.744C28.5143 18.8933 28.3438 19.0336 28.1599 19.1467C28.1375 19.1603 28.1151 19.1784 28.0881 19.1965C26.9397 19.961 25.5445 20.2777 24.1852 20.2913C23.0322 20.3275 21.8703 20.0787 20.8295 19.5765C20.8116 19.5674 20.7667 19.5493 20.7488 19.5403C20.5738 19.4453 20.3944 19.3639 20.2329 19.2462C20.197 19.2281 20.1611 19.2055 20.1207 19.1874C19.9547 19.0879 19.7977 18.9793 19.6497 18.8526C19.6003 18.8074 19.5465 18.7712 19.4927 18.7305C19.3312 18.5993 19.1652 18.459 19.0261 18.3007C18.9902 18.26 18.9543 18.2238 18.9184 18.1876C18.4294 17.6763 18.0481 17.052 17.8462 16.3734C17.6533 15.835 17.6802 15.2469 17.6578 14.6814C17.4963 14.4325 17.1554 14.2923 16.8862 14.4461C16.774 14.5275 16.7606 14.6768 16.6753 14.7809C16.5363 16.2739 17.1688 17.7623 18.1782 18.8391C18.1782 18.8752 18.1962 18.8979 18.2276 18.9114C18.407 19.0788 18.582 19.2508 18.7614 19.4136C18.7928 19.4453 18.8287 19.477 18.8691 19.5041C19.0485 19.6534 19.2414 19.7891 19.4298 19.9294C19.4657 19.9565 19.5016 19.9791 19.542 20.0018C19.7887 20.1465 20.022 20.3184 20.2867 20.418C20.3047 20.4316 20.3361 20.4542 20.354 20.4632C21.2064 20.8749 22.126 21.1554 23.0681 21.2459C23.1713 21.2459 23.2745 21.2549 23.3777 21.2776C23.8263 21.3047 24.2749 21.2911 24.7235 21.2821C26.1097 21.1599 27.5408 20.8206 28.6982 19.9972L28.7117 20.0153C28.7476 19.9837 28.779 19.9565 28.8149 19.9294C28.9988 19.7936 29.1783 19.6489 29.3577 19.4996C29.3981 19.4679 29.443 19.4317 29.4833 19.391C29.6807 19.1738 29.9095 18.9748 30.0755 18.726L30.1024 18.7395C30.1159 18.7169 30.1383 18.6717 30.1518 18.649C30.3043 18.4409 30.4434 18.2238 30.5779 18.0066C30.5869 17.993 30.6094 17.9704 30.6183 17.9568L30.6004 17.9387C30.6138 17.9207 30.6452 17.8845 30.6587 17.8664C30.9054 17.3597 31.1253 16.8303 31.2015 16.2693C31.2329 16.2558 31.2509 16.2286 31.2509 16.197C31.2554 16.016 31.3182 15.8441 31.3002 15.6631C31.3406 15.4414 31.3451 15.2152 31.3361 14.989Z" fill="white"/>
</mask>
<g mask="url(#mask0_91_5754)">
<path d="M16.3308 14.8368C16.6946 14.9517 17.53 14.6626 17.7664 14.9273M16.5399 15.9525C16.8884 15.8303 17.6358 15.5408 17.9454 15.7113M16.8988 17.0686C17.0674 17.1238 17.3994 16.8252 17.5641 16.7378C17.8094 16.6076 18.0611 16.508 18.3343 16.4655M17.4371 18.2448C17.6107 17.996 17.8189 17.7888 18.0696 17.6124C18.3186 17.4373 18.9992 16.9686 19.2912 17.1292M17.9458 19.0895C18.1432 18.9316 18.2235 18.6516 18.4303 18.4855C18.6807 18.2847 19.0647 18.2485 19.3213 18.1245M18.7906 19.7152C18.8498 19.2777 19.2899 18.7502 19.7102 18.7877M19.4411 20.3259C19.6631 20.3033 19.8511 19.8021 20.0014 19.6324C20.2266 19.3781 20.4594 19.2994 20.7573 19.2098M20.7272 20.8688C20.7129 20.5522 21.0372 19.6451 21.415 19.6926M21.6841 21.1706C21.6684 20.7965 21.86 19.6713 22.3122 19.6324M22.6711 21.7737C22.5854 21.2507 22.5908 20.4938 22.9999 20.1147M23.8972 21.8945C23.8514 21.4583 23.4221 20.577 23.8972 20.2355M25.2134 21.5927C25.0084 21.3529 24.8891 20.4069 24.9743 20.145M26.4695 21.3814C26.3112 21.0919 26.1151 20.8195 26.0555 20.4834C26.0196 20.2825 26.0824 19.9961 26.051 19.8432M27.5161 20.929C27.173 20.7028 27.0778 19.8708 27.1873 19.5116M28.5332 20.4766C28.2891 19.9486 28.0289 19.5392 28.0249 18.9384M29.5201 19.5116C29.141 19.2542 28.657 18.7868 28.7126 18.2752M30.5667 18.6973C29.9907 18.5683 29.2989 18.0485 28.9517 17.5812M31.0454 17.7019C30.6295 17.6119 29.2563 17.0717 29.3407 16.5257M31.494 16.6465C30.9149 16.4325 30.0724 16.2397 29.6098 15.8321M31.7928 15.681C31.4281 15.7127 30.9054 15.5344 30.5344 15.4697C30.1226 15.3983 29.7408 15.258 29.3402 15.168M31.4339 14.7463C30.7305 14.7888 30.0701 14.5459 29.4299 14.3242" stroke="#D1D1D1" stroke-width="2"/>
</g>
<defs>
<linearGradient id="paint0_linear_91_5754" x1="23.9968" y1="13.4081" x2="23.9968" y2="39.9994" gradientUnits="userSpaceOnUse">
<stop stop-color="#F7E830"/>
<stop offset="1" stop-color="#FDCB06"/>
</linearGradient>
<radialGradient id="paint1_radial_91_5754" cx="0" cy="0" r="1" gradientUnits="userSpaceOnUse" gradientTransform="translate(23.8594 25.536) scale(21.4474 21.629)">
<stop offset="0.596" stop-color="#F29405"/>
<stop offset="0.736" stop-color="#F7D01E"/>
<stop offset="1" stop-color="#FDCB06"/>
</radialGradient>
<linearGradient id="paint2_linear_91_5754" x1="31.3339" y1="14.3683" x2="31.3415" y2="15.6275" gradientUnits="userSpaceOnUse">
<stop stop-color="#FADA1C"/>
<stop offset="1" stop-color="#FDCB06"/>
</linearGradient>
<linearGradient id="paint3_linear_91_5754" x1="16.6469" y1="14.3073" x2="16.6393" y2="15.5665" gradientUnits="userSpaceOnUse">
<stop stop-color="#FADA1C"/>
<stop offset="1" stop-color="#FDCB06"/>
</linearGradient>
</defs>
</svg>
