<svg width="175" height="64" viewBox="0 0 175 64" fill="none" xmlns="http://www.w3.org/2000/svg">
<g clip-path="url(#clip0_12_30171)">
<path d="M174.225 0H0.775391V47.3493H174.225V0Z" fill="#263B82"/>
<path d="M40.1062 31.557V35.4882H26.3659L19.5025 35.5017C14.9179 35.5017 12.6257 33.5562 12.6257 29.6115L12.5854 11.8203H16.5132V27.5989C16.5132 30.2287 18.1486 31.5302 21.4328 31.5302H40.0928L40.1062 31.557ZM70.6834 31.557V35.4882H56.9431L50.0797 35.5017C45.4951 35.5017 43.2028 33.5562 43.2028 29.6115L43.1626 11.8203H47.0903V27.5989C47.0903 30.2287 48.7257 31.5302 52.01 31.5302H70.67L70.6834 31.557ZM87.4264 11.874C96.6492 11.874 101.261 15.8052 101.261 23.6811C101.261 31.557 96.676 35.4882 87.5202 35.5151C78.3645 35.5151 73.7934 31.5973 73.7934 23.7214C73.7934 15.8455 78.3377 11.9008 87.4264 11.874ZM97.3328 23.6811C97.3328 18.435 94.062 15.8186 87.5202 15.8321C80.9517 15.8186 77.6809 18.435 77.6809 23.6811C77.6809 28.9272 80.9517 31.557 87.5068 31.557C94.062 31.557 97.3328 28.9272 97.3328 23.6811ZM131.824 11.9142V21.7088L131.865 29.5847C131.865 33.5159 129.572 35.4882 124.988 35.4882H104.357L104.317 31.5973H125.296C127.025 31.5973 127.897 30.6044 127.91 28.6186L127.883 25.6534H111.18C106.623 25.6534 104.344 23.7079 104.344 19.8304L104.304 17.8178V11.8337L108.231 11.874V18.7838C108.258 20.7293 109.129 21.7088 110.859 21.7088H127.87V11.9142H131.797H131.824ZM138.862 15.8186H148.661C155.23 15.8186 158.514 18.4484 158.514 23.6811C158.514 28.9138 155.243 31.557 148.688 31.557H134.934V35.4882H148.661C157.817 35.5151 162.401 31.5973 162.401 23.7214C162.401 15.8455 157.857 11.9008 148.768 11.874H134.934V25.6132H138.862V15.8186Z" fill="white"/>
<path d="M21.5532 58.1504H12.7192V58.8749H21.5532V58.1504Z" fill="#231F20"/>
<path d="M162.281 58.1504H153.447V58.8749H162.281V58.1504Z" fill="#231F20"/>
<path d="M113.365 63.7588V53.2666H117.601C118.687 53.2666 119.505 53.4813 120.054 53.9106C120.591 54.34 120.859 54.9706 120.859 55.8293C120.859 56.3794 120.738 56.8356 120.483 57.2247C120.229 57.6004 119.853 57.8955 119.357 58.0968C119.987 58.2175 120.483 58.4993 120.832 58.9421C121.18 59.3848 121.368 59.9484 121.368 60.6326C121.368 61.5853 121.06 62.35 120.416 62.9136C119.786 63.4771 118.915 63.7588 117.829 63.7588H113.379H113.365ZM114.773 57.6674H117.28C118.017 57.6674 118.553 57.5333 118.902 57.2649C119.25 56.9966 119.411 56.5806 119.411 56.0171C119.411 55.4804 119.25 55.1048 118.915 54.8498C118.58 54.5815 118.07 54.4607 117.387 54.4607H114.773V57.6809V57.6674ZM114.773 62.4842H117.668C118.392 62.4842 118.942 62.3366 119.317 62.0012C119.692 61.6792 119.88 61.223 119.88 60.6058C119.88 59.9886 119.692 59.5458 119.317 59.2775C118.928 58.9823 118.339 58.8347 117.521 58.8347H114.786V62.4842H114.773Z" fill="#231F20"/>
<path d="M122.507 63.7593V56.1249H123.741V57.4934C123.942 56.9702 124.223 56.5945 124.558 56.3396C124.907 56.0846 125.336 55.9639 125.845 55.9639H126.06C126.06 55.9639 126.154 55.9639 126.194 55.9907V57.3458C126.194 57.3458 126.113 57.3458 126.073 57.3458C126.033 57.3458 125.966 57.3458 125.885 57.3458C125.202 57.3458 124.679 57.5337 124.317 57.9094C123.955 58.285 123.781 58.8217 123.781 59.5328V63.7861H122.507V63.7593Z" fill="#231F20"/>
<path d="M131.69 62.7395C131.288 63.1554 130.872 63.464 130.417 63.6787C129.974 63.8934 129.492 64.0007 128.996 64.0007C128.218 64.0007 127.615 63.7995 127.172 63.3835C126.73 62.9944 126.516 62.4175 126.516 61.7064C126.516 60.9953 126.73 60.4586 127.159 60.0829C127.575 59.6804 128.245 59.4255 129.116 59.3315C129.344 59.3047 129.639 59.2645 130.014 59.2242C130.671 59.1571 131.06 59.1035 131.207 59.0229C131.368 58.9693 131.462 58.9022 131.502 58.8083C131.543 58.7144 131.569 58.5131 131.569 58.2045C131.569 57.8154 131.422 57.5336 131.14 57.3324C130.872 57.1445 130.43 57.0506 129.854 57.0506C129.277 57.0506 128.808 57.158 128.513 57.4129C128.205 57.6544 128.057 58.0032 128.057 58.4728H126.851V58.4058C126.851 57.6276 127.105 57.0372 127.655 56.5944C128.191 56.1383 128.942 55.9102 129.894 55.9102C130.926 55.9102 131.663 56.098 132.146 56.4871C132.628 56.8628 132.87 57.4666 132.87 58.2716V62.0955C132.87 62.4175 132.91 62.6322 132.977 62.7261C133.044 62.82 133.178 62.8603 133.366 62.8603C133.406 62.8603 133.446 62.8603 133.5 62.8468C133.553 62.8468 133.62 62.8468 133.701 62.82V63.8129C133.54 63.8531 133.406 63.8934 133.285 63.9068C133.165 63.9202 133.057 63.9336 132.95 63.9336C132.535 63.9336 132.213 63.8397 131.998 63.6653C131.77 63.4775 131.677 63.1957 131.677 62.82V62.7798L131.69 62.7395ZM131.569 59.8682C131.221 60.0695 130.644 60.2037 129.813 60.311C129.518 60.3512 129.29 60.3915 129.143 60.4049C128.687 60.4854 128.352 60.6196 128.138 60.8209C127.937 61.0221 127.843 61.3039 127.843 61.693C127.843 62.0821 127.95 62.3772 128.191 62.5785C128.433 62.7798 128.768 62.8871 129.21 62.8871C129.907 62.8871 130.47 62.7127 130.913 62.3638C131.355 62.015 131.583 61.5722 131.583 61.0221V59.8816L131.569 59.8682Z" fill="#231F20"/>
<path d="M139.599 63.7585V59.0625C139.599 58.3111 139.492 57.7878 139.25 57.5061C139.022 57.2109 138.62 57.0767 138.071 57.0767C137.36 57.0767 136.797 57.278 136.408 57.6805C136.006 58.0964 135.805 58.66 135.805 59.4113V63.7585H134.532V56.1241H135.765V57.2243C136.06 56.7816 136.408 56.4595 136.811 56.2449C137.213 56.0302 137.669 55.9229 138.205 55.9229C138.781 55.9229 139.277 56.0034 139.653 56.1912C140.041 56.3656 140.35 56.634 140.564 56.9694C140.685 57.1572 140.779 57.3853 140.819 57.6268C140.872 57.8818 140.899 58.2709 140.899 58.821V63.7585H139.599Z" fill="#231F20"/>
<path d="M149.13 53.2666V63.7588H147.897V62.7928C147.575 63.1953 147.2 63.5039 146.784 63.6918C146.382 63.893 145.926 64.0004 145.43 64.0004C144.411 64.0004 143.594 63.6381 142.99 62.9001C142.401 62.1756 142.092 61.1962 142.092 59.9752C142.092 58.7542 142.401 57.7345 143.004 56.9832C143.607 56.2452 144.425 55.883 145.444 55.883C145.966 55.883 146.436 55.9769 146.851 56.1781C147.267 56.3794 147.615 56.6746 147.924 57.0637V53.2666H149.157H149.13ZM147.924 59.8813C147.924 58.9287 147.736 58.231 147.347 57.7479C146.972 57.2649 146.395 57.0234 145.645 57.0234C144.894 57.0234 144.358 57.2918 143.969 57.815C143.58 58.3383 143.379 59.0897 143.379 60.0557C143.379 60.9278 143.58 61.6121 143.996 62.1085C144.398 62.605 144.961 62.8599 145.658 62.8599C146.355 62.8599 146.932 62.605 147.32 62.0951C147.722 61.5853 147.91 60.8473 147.91 59.8947" fill="#231F20"/>
<path d="M24.7305 63.7588L28.6314 53.2666H30.1998L34.1141 63.7588H32.5725L31.4599 60.6326H27.3311L26.2184 63.7588H24.7439H24.7305ZM27.7734 59.3983H31.0443L29.4223 54.7693L27.7734 59.3983Z" fill="#231F20"/>
<path d="M42.5326 63.6779V59.6662H45.6158V63.6779H48.8732V53.3333H45.6158V56.8217H42.5326V53.3333H39.2617V63.6779H42.5326ZM56.1924 60.1492H54.128L55.1334 56.4461L56.179 60.1492H56.1924ZM53.1361 63.6779L53.5114 62.3228H56.7554L57.1576 63.6779H60.4151L56.8493 53.3199H53.5248L49.959 63.6779H53.1361ZM63.2033 63.6779H66.4742L69.9327 53.3199H66.6485L64.8388 60.2029L63.0827 53.3199H59.7984L63.2033 63.6779ZM79.571 63.6779V61.2628H74.5307V59.6259H78.6461V57.2243H74.5307V55.7349H79.3833V53.3199H71.2732V63.6779H79.571ZM89.0083 63.6779V61.2628H84.5309V53.3199H81.2735V63.6779H88.9948H89.0083ZM98.164 63.6779V61.2628H93.6866V53.3199H90.4158V63.6779H98.164ZM107.856 56.3253C107.802 55.8691 107.668 55.4532 107.481 55.0507C107.279 54.6616 107.025 54.3127 106.676 54.0041C106.328 53.7089 105.899 53.4809 105.403 53.3064C104.893 53.132 104.29 53.0381 103.606 53.0381C102.976 53.0381 102.4 53.1186 101.877 53.2528C101.354 53.3869 100.899 53.5882 100.51 53.87C100.135 54.1383 99.8396 54.4871 99.6117 54.9031C99.3973 55.319 99.29 55.802 99.29 56.3521C99.29 56.8352 99.3704 57.2645 99.5313 57.6133C99.7056 57.9622 99.9066 58.2574 100.175 58.4989C100.456 58.727 100.765 58.9282 101.1 59.0892C101.435 59.2368 101.783 59.371 102.145 59.4783C102.507 59.5991 102.856 59.6796 103.191 59.7601C103.526 59.8406 103.834 59.9345 104.102 60.015C104.384 60.0955 104.585 60.2029 104.746 60.3236C104.907 60.4578 104.987 60.6054 104.987 60.8066C104.987 60.9676 104.934 61.1152 104.813 61.2226C104.706 61.3433 104.545 61.4238 104.344 61.4909C104.143 61.5446 103.888 61.5848 103.62 61.5848C103.459 61.5848 103.298 61.558 103.137 61.5177C102.976 61.4775 102.829 61.4238 102.708 61.3299C102.574 61.236 102.44 61.1287 102.36 60.9945C102.266 60.8469 102.199 60.6993 102.172 60.5115H99.0353C99.0621 60.9811 99.1694 61.4238 99.3972 61.8398C99.6117 62.2557 99.9066 62.6314 100.282 62.9534C100.671 63.2754 101.127 63.5169 101.663 63.7048C102.199 63.8926 102.789 63.9865 103.446 63.9865C104.102 63.9865 104.759 63.9194 105.336 63.7718C105.912 63.6242 106.395 63.3962 106.81 63.1144C107.226 62.8192 107.548 62.4435 107.775 62.0008C108.003 61.5446 108.124 61.0213 108.124 60.4175C108.124 59.9614 108.03 59.5588 107.883 59.21C107.722 58.888 107.521 58.5928 107.239 58.3647C106.971 58.1366 106.649 57.9488 106.314 57.7878C105.979 57.6268 105.631 57.4926 105.269 57.3987C104.907 57.2913 104.558 57.1974 104.223 57.1035C103.888 57.023 103.58 56.9291 103.312 56.8486C103.043 56.7546 102.829 56.6473 102.668 56.5131C102.507 56.379 102.427 56.2314 102.427 56.0435C102.427 55.8557 102.507 55.6947 102.668 55.6008C102.842 55.4934 103.097 55.4398 103.459 55.4398C103.62 55.4398 103.767 55.4532 103.915 55.48C104.049 55.5068 104.169 55.5605 104.304 55.6276C104.424 55.6947 104.518 55.7886 104.612 55.8825C104.692 56.0033 104.746 56.1509 104.773 56.3253H107.869H107.856Z" fill="#231F20"/>
</g>
<defs>
<clipPath id="clip0_12_30171">
<rect width="173.449" height="64" fill="white" transform="translate(0.775391)"/>
</clipPath>
</defs>
</svg>
