<svg width="61" height="59" viewBox="0 0 61 59" fill="none" xmlns="http://www.w3.org/2000/svg">
<path fill-rule="evenodd" clip-rule="evenodd" d="M20.2724 23.0037L15.6669 30.8416C15.6184 30.9242 15.6386 31.0288 15.7146 31.0869L29.7042 41.8386C29.7474 41.8718 29.7972 41.8842 29.8509 41.8749C29.9046 41.8656 29.9471 41.837 29.9766 41.7912C38.516 28.5114 48.9653 17.0591 60.9321 7.05896C61.0062 6.99706 61.0217 6.89022 60.9684 6.80967C60.9154 6.72955 60.8121 6.70242 60.7266 6.7459C49.6338 12.3932 39.3765 19.4491 29.9651 27.9313C29.9048 27.9855 29.8209 27.9957 29.7497 27.9568L20.5245 22.9337C20.4353 22.8853 20.3238 22.9163 20.2724 23.0037ZM29.4226 0C37.6871 0 45.1553 3.41716 50.4999 8.91848C50.5414 8.96113 50.5591 9.01518 50.5517 9.07419C50.5441 9.1334 50.5129 9.18102 50.4621 9.21166C48.0448 10.6687 45.6722 12.1957 43.3457 13.7908C43.2741 13.8401 43.1814 13.8345 43.1159 13.7771C39.4556 10.5697 34.6659 8.6253 29.4228 8.6253C17.9244 8.6253 8.60319 17.9713 8.60319 29.4999C8.60319 41.0285 17.9242 50.3747 29.4226 50.3747C40.921 50.3747 50.2422 41.0289 50.2422 29.5001C50.2422 26.9722 49.7932 24.5497 48.972 22.3076C48.9468 22.2386 48.9616 22.1662 49.012 22.1128C51.0314 19.9781 53.1134 17.9003 55.2549 15.8781C55.2993 15.8362 55.3552 15.8193 55.4153 15.8294C55.4754 15.8396 55.5227 15.8741 55.5508 15.9284C57.6547 19.9911 58.8447 24.6059 58.8447 29.4999C58.8447 45.7923 45.672 59 29.4224 59C13.1729 59 0 45.7925 0 29.4999C0.000413009 13.2077 13.1731 0 29.4226 0Z" fill="#DA251D"/>
</svg>
