<svg width="20" height="20" viewBox="0 0 20 20" fill="none" xmlns="http://www.w3.org/2000/svg">
<path d="M17.8125 11.2498V16.2498C17.8125 16.4984 17.7137 16.7369 17.5379 16.9127C17.3621 17.0885 17.1236 17.1873 16.875 17.1873H3.125C2.87636 17.1873 2.6379 17.0885 2.46209 16.9127C2.28627 16.7369 2.1875 16.4984 2.1875 16.2498V11.2498C2.1875 11.0011 2.28627 10.7627 2.46209 10.5869C2.6379 10.411 2.87636 10.3123 3.125 10.3123C3.37364 10.3123 3.6121 10.411 3.78791 10.5869C3.96373 10.7627 4.0625 11.0011 4.0625 11.2498V15.3123H15.9375V11.2498C15.9375 11.0011 16.0363 10.7627 16.2121 10.5869C16.3879 10.411 16.6264 10.3123 16.875 10.3123C17.1236 10.3123 17.3621 10.411 17.5379 10.5869C17.7137 10.7627 17.8125 11.0011 17.8125 11.2498ZM7.53828 6.28804L9.0625 4.76539V11.2498C9.0625 11.4984 9.16127 11.7369 9.33709 11.9127C9.5129 12.0885 9.75136 12.1873 10 12.1873C10.2486 12.1873 10.4871 12.0885 10.6629 11.9127C10.8387 11.7369 10.9375 11.4984 10.9375 11.2498V4.76539L12.4617 6.29039C12.5489 6.37759 12.6525 6.44677 12.7664 6.49396C12.8803 6.54116 13.0025 6.56545 13.1258 6.56545C13.2491 6.56545 13.3712 6.54116 13.4852 6.49396C13.5991 6.44677 13.7026 6.37759 13.7898 6.29039C13.877 6.20318 13.9462 6.09965 13.9934 5.98571C14.0406 5.87177 14.0649 5.74965 14.0649 5.62632C14.0649 5.503 14.0406 5.38088 13.9934 5.26694C13.9462 5.153 13.877 5.04947 13.7898 4.96226L10.6648 1.83726C10.5777 1.74986 10.4743 1.68052 10.3603 1.6332C10.2463 1.58588 10.1242 1.56152 10.0008 1.56152C9.87739 1.56152 9.75522 1.58588 9.64126 1.6332C9.52731 1.68052 9.42382 1.74986 9.33672 1.83726L6.21172 4.96226C6.12451 5.04947 6.05534 5.153 6.00814 5.26694C5.96095 5.38088 5.93665 5.503 5.93665 5.62632C5.93665 5.8754 6.0356 6.11427 6.21172 6.29039C6.38784 6.46651 6.62671 6.56545 6.87578 6.56545C7.12485 6.56545 7.36372 6.46651 7.53984 6.29039L7.53828 6.28804Z" fill="#797979"/>
</svg>
