<svg width="24" height="25" viewBox="0 0 24 25" fill="none" xmlns="http://www.w3.org/2000/svg">
<path d="M7.27823 14.0851C6.75023 14.0653 6.23728 14.032 5.77987 13.9929C6.01608 13.7585 6.19608 13.508 6.54862 13.5158C6.85819 13.497 7.0583 13.797 7.27823 14.0851ZM9.94566 13.5158C9.63886 13.4959 9.44006 13.804 9.22463 14.0881C9.80789 14.0693 10.2934 14.0368 10.6929 13.9993C10.4658 13.7638 10.3038 13.5079 9.94566 13.5158ZM4.68802 15.6727C4.64986 15.9863 4.78594 16.3293 5.12953 16.3818C6.16022 16.5672 7.20521 16.6616 8.25244 16.664C9.29153 16.6599 10.3284 16.5676 11.3519 16.3881C11.6945 16.33 11.852 15.9921 11.8112 15.6727C9.98752 15.9546 6.50977 15.9542 4.68802 15.6727ZM8.24963 11.9247C7.06202 11.921 5.87713 11.8111 4.70906 11.5966C4.83464 10.0145 6.3075 8.33608 8.24963 8.33608C10.1918 8.33608 11.6645 10.0145 11.79 11.5966C10.622 11.8111 9.43718 11.921 8.24963 11.9247ZM9.89869 10.3814C10.0939 10.4833 10.4012 10.7256 10.5631 10.4373C10.7163 10.1455 10.3455 10.019 10.153 9.91141C10.1221 9.89437 10.0882 9.88362 10.0531 9.87977C10.018 9.87592 9.98255 9.87904 9.94871 9.88897C9.91486 9.8989 9.88332 9.91543 9.85589 9.93761C9.82847 9.95979 9.80571 9.98718 9.78892 10.0182C9.77214 10.0492 9.76166 10.0833 9.75809 10.1184C9.75453 10.1534 9.75795 10.1889 9.76815 10.2227C9.77836 10.2564 9.79515 10.2878 9.81755 10.3151C9.83995 10.3423 9.86753 10.3649 9.89869 10.3814ZM6.28434 10.2346L5.98205 10.5369C5.73319 10.7784 6.11845 11.1634 6.35986 10.9148L6.66216 10.6124C6.91102 10.3709 6.5257 9.98599 6.28434 10.2346ZM8.06058 9.21419C7.87908 9.06574 7.59441 8.58705 7.32333 8.85485C7.27324 8.90496 7.24509 8.97291 7.24509 9.04376C7.24509 9.11461 7.27324 9.18256 7.32333 9.23266C7.50478 9.38112 7.7895 9.85985 8.06053 9.59205C8.11064 9.54195 8.1388 9.474 8.13881 9.40313C8.13882 9.33227 8.11068 9.26431 8.06058 9.21419ZM8.70277 11.4062C8.85745 11.252 9.15277 11.0312 8.92983 10.8015C8.70014 10.5781 8.47927 10.8734 8.32514 11.0279C8.07656 11.2697 8.46117 11.6545 8.70291 11.4062H8.70277ZM4.74506 13.8842C4.77173 13.8876 4.79663 13.8911 4.82475 13.8945C5.13506 13.8911 5.28825 13.7347 5.49802 13.5172C6.10739 12.7672 7.10517 12.8113 7.61808 13.6509C8.00062 14.2549 8.50997 14.2521 8.88778 13.6483C9.39905 12.8077 10.3929 12.7624 10.9816 13.5252C11.1738 13.737 11.3147 13.8895 11.6139 13.8931C11.6762 13.8845 11.7372 13.8761 11.792 13.8684C12.1794 13.7508 12.4736 13.2553 12.6089 12.9488L11.9568 12.1091C10.7345 12.3404 9.49343 12.4576 8.24948 12.4591C7.00554 12.4575 5.76444 12.3404 4.54219 12.1091L3.88767 12.9522C3.99736 13.2209 4.29548 13.8237 4.7452 13.8842H4.74506ZM13.0748 23.1768L20.621 18.8233H9.76322L12.1001 22.9131C12.1467 22.9945 12.2088 23.066 12.2831 23.1234C12.3573 23.1807 12.4421 23.2229 12.5327 23.2474C12.6232 23.2719 12.7177 23.2783 12.8107 23.2661C12.9038 23.254 12.9935 23.2237 13.0748 23.1768ZM12.2957 14.3487C12.1559 14.3574 12.0165 14.3732 11.8782 14.3959C11.8091 14.4124 11.7386 14.4221 11.6676 14.4251C10.4543 14.6829 6.35494 14.6979 4.78059 14.4272C4.71337 14.4249 4.6465 14.4164 4.58086 14.4018C4.46498 14.3858 4.35656 14.3696 4.26211 14.3536C3.77723 14.2885 3.70195 14.977 4.13986 15.0525C4.85114 15.1809 6.6023 15.3628 8.25169 15.3628C9.89812 15.3628 11.6479 15.1809 12.3644 15.0514C12.7823 14.9773 12.7199 14.3452 12.2957 14.3487ZM10.9248 1.8229C9.59358 2.59062 8.93006 2.97133 8.58656 3.15607C9.28031 4.93413 6.90108 6.31516 5.70023 4.83729L3.37894 6.17646H14.2366L11.8995 2.08657C11.853 2.00511 11.7908 1.93364 11.7166 1.87627C11.6424 1.8189 11.5575 1.77676 11.467 1.75226C11.3764 1.72776 11.2819 1.72139 11.1888 1.73351C11.0958 1.74563 11.0061 1.77601 10.9248 1.8229ZM18.1453 10.8968C18.1172 10.0707 16.9195 10.0743 16.8984 10.9036C16.9238 11.7167 18.1206 11.7196 18.1453 10.8968ZM21.0844 13.4894C20.7817 13.4894 20.4715 13.6811 20.4609 14.1097C20.4863 14.9231 21.6831 14.9256 21.7078 14.1031C21.6938 13.6793 21.3855 13.4894 21.0844 13.4894ZM1.57969 6.71084H22.4203C22.6093 6.71084 22.7905 6.7859 22.9241 6.91952C23.0577 7.05314 23.1328 7.23437 23.1328 7.42334V17.5765C23.1328 17.7654 23.0577 17.9467 22.9241 18.0803C22.7905 18.2139 22.6093 18.289 22.4203 18.289H1.57969C1.39072 18.289 1.20949 18.2139 1.07587 18.0803C0.942254 17.9467 0.867188 17.7654 0.867188 17.5765V14.178C2.74153 13.8777 2.74144 11.1397 0.867188 10.84V7.42334C0.867188 7.23437 0.942254 7.05314 1.07587 6.91952C1.20949 6.7859 1.39072 6.71084 1.57969 6.71084ZM12.6488 13.8879C12.8693 13.6207 13.0441 13.3189 13.166 12.9947C13.1808 12.9525 13.1848 12.9073 13.1777 12.8632C13.1705 12.819 13.1524 12.7774 13.125 12.7421L12.3277 11.7155C12.2699 9.61971 10.3912 7.8019 8.24953 7.8019C6.10791 7.8019 4.22916 9.61971 4.17141 11.7155L3.37416 12.7421C3.34769 12.7762 3.32986 12.8161 3.3222 12.8586C3.31453 12.901 3.31726 12.9447 3.33014 12.9859C3.44052 13.3153 3.60686 13.6233 3.82186 13.8963C3.10233 14.247 3.13823 15.3963 4.03969 15.5777C4.07461 15.584 4.11408 15.5905 4.15364 15.597C4.08113 16.196 4.40911 16.8082 5.03592 16.9084C6.09756 17.0989 7.17385 17.196 8.25244 17.1986C9.32338 17.1944 10.392 17.0992 11.4468 16.914C12.0772 16.8052 12.4155 16.1995 12.3455 15.5968C12.3857 15.5902 12.4257 15.5836 12.4612 15.5772C13.3163 15.4347 13.4399 14.2057 12.6488 13.8879ZM15.1172 17.0332C15.1156 16.6837 14.5844 16.6839 14.5828 17.0332V17.3894C14.5844 17.7389 15.1156 17.7387 15.1172 17.3894V17.0332ZM15.1172 15.0905C15.1172 15.0196 15.089 14.9517 15.0389 14.9016C14.9888 14.8515 14.9209 14.8233 14.85 14.8233C14.7791 14.8233 14.7112 14.8515 14.6611 14.9016C14.611 14.9517 14.5828 15.0196 14.5828 15.0905V15.7379C14.5844 16.0874 15.1156 16.0871 15.1172 15.7379V15.0905ZM15.1172 13.1474C15.1172 13.0766 15.089 13.0086 15.0389 12.9585C14.9888 12.9084 14.9209 12.8802 14.85 12.8802C14.7791 12.8802 14.7112 12.9084 14.6611 12.9585C14.611 13.0086 14.5828 13.0766 14.5828 13.1474V13.7952C14.5844 14.1447 15.1156 14.1444 15.1172 13.7952V13.1474ZM15.1172 11.2048C15.1172 11.1339 15.089 11.066 15.0389 11.0159C14.9888 10.9658 14.9209 10.9376 14.85 10.9376C14.7791 10.9376 14.7112 10.9658 14.6611 11.0159C14.611 11.066 14.5828 11.1339 14.5828 11.2048V11.8524C14.5844 12.2019 15.1156 12.2016 15.1172 11.8524V11.2048ZM15.1172 9.26191C15.1172 9.19105 15.089 9.12309 15.0389 9.07298C14.9888 9.02288 14.9209 8.99473 14.85 8.99473C14.7791 8.99473 14.7112 9.02288 14.6611 9.07298C14.611 9.12309 14.5828 9.19105 14.5828 9.26191V9.90954C14.5844 10.259 15.1156 10.2587 15.1172 9.90954V9.26191ZM15.1172 7.61046C15.1156 7.26101 14.5844 7.26115 14.5828 7.61046V7.96671C14.5844 8.31616 15.1156 8.31602 15.1172 7.96671V7.61046ZM18.6797 10.9037V10.8901C18.6281 9.36921 16.4073 9.37019 16.3641 10.9037C16.4118 12.421 18.6317 12.4211 18.6797 10.9036V10.9037ZM17.5406 14.8181L21.4594 10.5431C21.6984 10.2899 21.295 9.92454 21.0656 10.1821L17.1469 14.4571C16.9871 14.6201 17.121 14.9118 17.3438 14.9049C17.3808 14.9049 17.4174 14.8971 17.4513 14.8822C17.4852 14.8672 17.5156 14.8454 17.5406 14.818V14.8181ZM22.2422 14.0965C22.2234 13.3471 21.6455 12.955 21.0844 12.955C20.5232 12.955 19.9453 13.347 19.9266 14.1097C19.9742 15.6274 22.1943 15.6274 22.2422 14.1097V14.0965Z" fill="#010101"/>
</svg>
