<svg width="26" height="26" viewBox="0 0 26 26" fill="none" xmlns="http://www.w3.org/2000/svg">
<g clip-path="url(#clip0_36_121259)">
<path style="mix-blend-mode:multiply" d="M25.4342 11.7857C23.7456 10.4975 18.7405 11.5333 16.8169 11.9946C18.6535 11.455 23.4322 9.86207 24.3113 7.86006C24.5203 7.39002 24.4941 6.91999 24.2417 6.46736C23.998 6.04084 23.6324 5.79712 23.1537 5.73619C21.0559 5.44895 17.2695 8.82625 15.8246 10.2015C17.1563 8.80013 20.464 5.05725 20.229 2.89856C20.1681 2.385 19.9156 1.9933 19.4717 1.73217C19.0539 1.48845 18.61 1.45363 18.1661 1.63642C16.2076 2.44593 14.606 7.29428 14.0402 9.19183C14.4841 7.32909 15.5025 2.39371 14.2056 0.63542C13.9009 0.21761 13.4831 0.00870438 12.9608 0H12.9521C12.4647 0 12.073 0.191496 11.7857 0.574489C10.4975 2.25444 11.5333 7.26816 11.9946 9.18313C11.455 7.3465 9.86207 2.56779 7.86006 1.68865C7.39002 1.47975 6.91999 1.50586 6.46736 1.75829C6.04084 2.00201 5.79712 2.36759 5.73619 2.84633C5.45765 4.9528 8.86106 8.76532 10.2189 10.2015C8.83495 8.88718 5.06595 5.53599 2.88986 5.77971C2.3763 5.84064 1.9846 6.09307 1.72347 6.53699C1.47975 6.9548 1.44493 7.39873 1.62772 7.84265C2.43723 9.80114 7.29428 11.4114 9.19183 11.9685C7.32909 11.5246 2.39371 10.5062 0.63542 11.8031C0.21761 12.1078 0 12.5256 0 13.0392C0 13.5266 0.191497 13.927 0.574489 14.2143C1.17509 14.6756 2.19351 14.841 3.35119 14.841C5.43154 14.841 7.9471 14.31 9.18313 14.0054C7.3465 14.5537 2.56779 16.1379 1.68865 18.1399C1.47975 18.61 1.50586 19.08 1.75829 19.5326C2.00201 19.9592 2.36759 20.2029 2.84633 20.2638C2.92467 20.2725 3.01172 20.2812 3.09876 20.2812C5.24004 20.2812 8.81754 17.0867 10.2015 15.781C8.88718 17.1738 5.53599 20.9428 5.77971 23.1101C5.84064 23.6237 6.09307 24.0154 6.53699 24.2765C6.78072 24.4158 7.02444 24.4854 7.27687 24.4854C7.45966 24.4854 7.65116 24.4419 7.84265 24.3636C9.80114 23.5541 11.4114 18.697 11.9685 16.7995C11.5246 18.6622 10.5062 23.5976 11.8031 25.3559C12.1078 25.7737 12.5256 25.9826 13.0479 25.9913H13.0566C13.544 25.9913 13.9357 25.7998 14.223 25.4168C15.5199 23.7282 14.4754 18.7144 14.0141 16.7995C14.5537 18.6274 16.1466 23.4235 18.1486 24.3026C18.3575 24.3984 18.5752 24.4419 18.7841 24.4419C19.0452 24.4419 19.2976 24.3723 19.5413 24.233C19.9679 23.9893 20.2116 23.6237 20.2725 23.145C20.5511 21.0385 17.1389 17.2086 15.7811 15.781C17.1128 17.0432 20.6903 20.229 22.8838 20.229C22.9622 20.229 23.0405 20.229 23.1101 20.2203C23.6237 20.1594 24.0154 19.9069 24.2765 19.463C24.5203 19.0452 24.5551 18.6013 24.3723 18.1573C23.5628 16.1989 18.7318 14.5973 16.8256 14.0402C18.0181 14.3274 20.4466 14.841 22.5095 14.841C23.6846 14.841 24.7379 14.6756 25.3733 14.2056C25.7911 13.9009 26 13.4831 26.0087 12.9608C26.0087 12.4734 25.8172 12.073 25.4342 11.7857ZM25.234 14.0228C23.1711 15.5373 16.225 13.6572 16.1553 13.6398L16.0944 13.84C16.0944 13.84 16.0683 13.84 16.0596 13.8313L15.9987 14.0489C16.0683 14.0663 23.2059 15.9638 24.1547 18.2531C24.3113 18.6361 24.2852 18.993 24.0763 19.3586C23.85 19.7415 23.528 19.9592 23.084 20.0027C20.5685 20.2899 15.459 15.1804 15.4155 15.1282L15.2588 15.2675C15.2588 15.2675 15.2414 15.2501 15.2327 15.2414L15.076 15.4068C15.1282 15.459 20.3683 20.6642 20.0375 23.1276C19.9853 23.5367 19.7764 23.8326 19.4195 24.0415C19.0278 24.2678 18.6448 24.2852 18.2357 24.1024C15.9029 23.0753 14.0489 16.1205 14.0315 16.0509L13.8313 16.0944C13.8313 16.0944 13.8313 16.0683 13.8226 16.0596L13.605 16.1205C13.6224 16.1902 15.5547 23.319 14.0489 25.2862C13.7965 25.6083 13.4744 25.765 13.0653 25.765H13.0566C12.6127 25.765 12.2645 25.5822 11.9946 25.2253C10.4801 23.1711 12.3602 16.2163 12.3776 16.1466L12.1774 16.0857C12.1774 16.0857 12.1774 16.0596 12.1861 16.0509L11.9685 15.99C11.9511 16.0596 10.0536 23.1972 7.76431 24.146C7.38132 24.3026 7.02444 24.2765 6.65885 24.0676C6.27586 23.8413 6.05825 23.5105 6.01473 23.0666C5.73619 20.5336 10.837 15.4503 10.8892 15.3981L10.7499 15.2414C10.7499 15.2414 10.7673 15.224 10.776 15.2153L10.6106 15.0586C10.5584 15.1108 5.3532 20.3509 2.88986 20.0201C2.48075 19.9679 2.1848 19.759 1.9759 19.4021C1.74958 19.0104 1.73217 18.6274 1.91496 18.2183C2.93338 15.8855 9.89689 14.0315 9.96652 14.0141L9.923 13.8139C9.923 13.8139 9.94911 13.8139 9.95782 13.8052L9.89689 13.5875C9.82725 13.605 2.69836 15.5373 0.731168 14.0315C0.400402 13.779 0.243723 13.457 0.252427 13.0392C0.252427 12.5952 0.435219 12.2471 0.792099 11.9772C2.85504 10.4627 9.80114 12.3428 9.87077 12.3602L9.9317 12.16C9.9317 12.16 9.95782 12.16 9.96652 12.1687L10.0275 11.9511C9.95782 11.9337 2.82022 10.0362 1.87144 7.7469C1.71476 7.36391 1.74088 7.00703 1.94978 6.64145C2.1761 6.25845 2.50686 6.04084 2.95079 5.99732C3.02042 5.99732 3.09006 5.98862 3.15969 5.98862C5.7623 5.98862 10.5671 10.8196 10.6194 10.8718L10.776 10.7325C10.776 10.7325 10.7934 10.7499 10.8021 10.7586L10.9588 10.5932C10.9066 10.541 5.66655 5.33579 5.99732 2.87245C6.04955 2.46334 6.24975 2.16739 6.61533 1.95849C7.00703 1.74088 7.39002 1.71476 7.79913 1.89756C10.1319 2.92467 11.9859 9.87948 12.0033 9.94911L12.2035 9.90559C12.2035 9.90559 12.2035 9.9317 12.2123 9.94041L12.4299 9.87948C12.4125 9.80984 10.4801 2.68095 11.9946 0.71376C12.2471 0.391697 12.5691 0.235018 12.9782 0.235018H12.9869C13.4309 0.235018 13.779 0.41781 14.0489 0.77469C15.5547 2.82893 13.6833 9.78373 13.6659 9.85336L13.8661 9.9143C13.8661 9.9143 13.8661 9.94041 13.8574 9.94911L14.075 10.01C14.0924 9.94041 15.99 2.80281 18.2792 1.85403C18.6622 1.69736 19.0191 1.72347 19.3847 1.93237C19.7677 2.15869 19.9853 2.48945 20.0288 2.93338C20.3073 5.47506 15.2066 10.5497 15.1543 10.6019L15.2936 10.7586C15.2936 10.7586 15.2762 10.776 15.2675 10.7847L15.4329 10.9414C15.4851 10.8892 20.699 5.64044 23.1537 5.97991C23.5628 6.03214 23.8587 6.23234 24.0676 6.59792C24.2939 6.98962 24.3113 7.37261 24.1286 7.78172C23.1014 10.1145 16.1466 11.9685 16.077 11.9859L16.1205 12.1861C16.1205 12.1861 16.0944 12.1861 16.0857 12.1948L16.1466 12.4125C16.2163 12.395 23.3452 10.4627 25.3124 11.9772C25.6431 12.2297 25.7998 12.5517 25.7911 12.9695C25.7911 13.4135 25.6083 13.7616 25.2514 14.0315L25.234 14.0228Z" fill="#F8951D"/>
</g>
<defs>
<clipPath id="clip0_36_121259">
<rect width="26" height="26" fill="white"/>
</clipPath>
</defs>
</svg>
